<?xml version="1.0" encoding="UTF-8" standalone="no"?>
<!-- Generator: Adobe Illustrator 16.0.0, SVG Export Plug-In . SVG Version: 6.00 Build 0)  -->

<svg
   version="1.1"
   id="Layer_1"
   x="0px"
   y="0px"
   width="231.892px"
   height="167.458px"
   viewBox="0 0 231.892 167.458"
   enable-background="new 0 0 231.892 167.458"
   xml:space="preserve"
   sodipodi:docname="logo.svg"
   inkscape:version="1.4.2 (2aeb623e1d, 2025-05-12)"
   xmlns:inkscape="http://www.inkscape.org/namespaces/inkscape"
   xmlns:sodipodi="http://sodipodi.sourceforge.net/DTD/sodipodi-0.dtd"
   xmlns="http://www.w3.org/2000/svg"
   xmlns:svg="http://www.w3.org/2000/svg"><defs
   id="defs136"><clipPath
     clipPathUnits="userSpaceOnUse"
     id="clipPath5555"><g
       id="g5559"><path
         d="M -146.72524,-86.572952 H 530.60808 V 294.42704 h -677.33332 z"
         id="path5557"
         style="stroke-width:0.352778" /></g></clipPath><clipPath
     clipPathUnits="userSpaceOnUse"
     id="clipPath5549"><g
       id="g5553"
       transform="matrix(2.8346458,0,0,-2.8346458,98.749975,462.10806)"><path
         d="M -146.72524,-86.572952 H 530.60808 V 294.42704 h -677.33332 z"
         id="path5551"
         style="stroke-width:0.352778" /></g></clipPath><clipPath
     clipPathUnits="userSpaceOnUse"
     id="clipPath5543"><g
       id="g5547"
       transform="matrix(2.8346458,0,0,-2.8346458,254.22168,356.24776)"><path
         d="M -146.72524,-86.572952 H 530.60808 V 294.42704 h -677.33332 z"
         id="path5545"
         style="stroke-width:0.352778" /></g></clipPath><clipPath
     clipPathUnits="userSpaceOnUse"
     id="clipPath5537"><g
       id="g5541"
       transform="matrix(2.8346458,0,0,-2.8346458,224.27347,359.50165)"><path
         d="M -146.72524,-86.572952 H 530.60808 V 294.42704 h -677.33332 z"
         id="path5539"
         style="stroke-width:0.352778" /></g></clipPath><clipPath
     clipPathUnits="userSpaceOnUse"
     id="clipPath5531"><g
       id="g5535"
       transform="matrix(2.8346458,0,0,-2.8346458,222.24418,356.24776)"><path
         d="M -146.72524,-86.572952 H 530.60808 V 294.42704 h -677.33332 z"
         id="path5533"
         style="stroke-width:0.352778" /></g></clipPath><clipPath
     clipPathUnits="userSpaceOnUse"
     id="clipPath5525"><g
       id="g5529"
       transform="matrix(2.8346458,0,0,-2.8346458,197.10748,325.86296)"><path
         d="M -146.72524,-86.572952 H 530.60808 V 294.42704 h -677.33332 z"
         id="path5527"
         style="stroke-width:0.352778" /></g></clipPath><clipPath
     clipPathUnits="userSpaceOnUse"
     id="clipPath5519"><g
       id="g5523"
       transform="matrix(2.8346458,0,0,-2.8346458,183.34087,334.41665)"><path
         d="M -146.72524,-86.572952 H 530.60808 V 294.42704 h -677.33332 z"
         id="path5521"
         style="stroke-width:0.352778" /></g></clipPath><clipPath
     clipPathUnits="userSpaceOnUse"
     id="clipPath5513"><g
       id="g5517"
       transform="matrix(2.8346458,0,0,-2.8346458,168.43748,356.24776)"><path
         d="M -146.72524,-86.572952 H 530.60808 V 294.42704 h -677.33332 z"
         id="path5515"
         style="stroke-width:0.352778" /></g></clipPath><clipPath
     clipPathUnits="userSpaceOnUse"
     id="clipPath5507"><g
       id="g5511"
       transform="matrix(2.8346458,0,0,-2.8346458,159.82228,341.36196)"><path
         d="M -146.72524,-86.572952 H 530.60808 V 294.42704 h -677.33332 z"
         id="path5509"
         style="stroke-width:0.352778" /></g></clipPath><clipPath
     clipPathUnits="userSpaceOnUse"
     id="clipPath5501"><g
       id="g5505"
       transform="matrix(2.8346458,0,0,-2.8346458,139.13677,334.38246)"><path
         d="M -146.72524,-86.572952 H 530.60808 V 294.42704 h -677.33332 z"
         id="path5503"
         style="stroke-width:0.352778" /></g></clipPath><clipPath
     clipPathUnits="userSpaceOnUse"
     id="clipPath5495"><g
       id="g5499"
       transform="matrix(2.8346458,0,0,-2.8346458,121.03227,357.96255)"><path
         d="M -146.72524,-86.572952 H 530.60808 V 294.42704 h -677.33332 z"
         id="path5497"
         style="stroke-width:0.352778" /></g></clipPath><clipPath
     clipPathUnits="userSpaceOnUse"
     id="clipPath5489"><g
       id="g5493"
       transform="matrix(2.8346458,0,0,-2.8346458,250.77048,386.30246)"><path
         d="M -146.72524,-86.572952 H 530.60808 V 294.42704 h -677.33332 z"
         id="path5491"
         style="stroke-width:0.352778" /></g></clipPath><clipPath
     clipPathUnits="userSpaceOnUse"
     id="clipPath5483"><g
       id="g5487"
       transform="matrix(2.8346458,0,0,-2.8346458,236.73828,389.64025)"><path
         d="M -146.72524,-86.572952 H 530.60808 V 294.42704 h -677.33332 z"
         id="path5485"
         style="stroke-width:0.352778" /></g></clipPath><clipPath
     clipPathUnits="userSpaceOnUse"
     id="clipPath5477"><g
       id="g5481"
       transform="matrix(2.8346458,0,0,-2.8346458,222.52637,365.48794)"><path
         d="M -146.72524,-86.572952 H 530.60808 V 294.42704 h -677.33332 z"
         id="path5479"
         style="stroke-width:0.352778" /></g></clipPath><clipPath
     clipPathUnits="userSpaceOnUse"
     id="clipPath5471"><g
       id="g5475"
       transform="matrix(2.8346458,0,0,-2.8346458,201.94437,378.42155)"><path
         d="M -146.72524,-86.572952 H 530.60808 V 294.42704 h -677.33332 z"
         id="path5473"
         style="stroke-width:0.352778" /></g></clipPath><clipPath
     clipPathUnits="userSpaceOnUse"
     id="clipPath5465"><g
       id="g5469"
       transform="matrix(2.8346458,0,0,-2.8346458,190.73827,372.61095)"><path
         d="M -146.72524,-86.572952 H 530.60808 V 294.42704 h -677.33332 z"
         id="path5467"
         style="stroke-width:0.352778" /></g></clipPath><clipPath
     clipPathUnits="userSpaceOnUse"
     id="clipPath5459"><g
       id="g5463"
       transform="matrix(2.8346458,0,0,-2.8346458,180.07037,387.88156)"><path
         d="M -146.72524,-86.572952 H 530.60808 V 294.42704 h -677.33332 z"
         id="path5461"
         style="stroke-width:0.352778" /></g></clipPath><clipPath
     clipPathUnits="userSpaceOnUse"
     id="clipPath5453"><g
       id="g5457"
       transform="matrix(2.8346458,0,0,-2.8346458,163.09568,387.88156)"><path
         d="M -146.72524,-86.572952 H 530.60808 V 294.42704 h -677.33332 z"
         id="path5455"
         style="stroke-width:0.352778" /></g></clipPath><clipPath
     clipPathUnits="userSpaceOnUse"
     id="clipPath5447"><g
       id="g5451"
       transform="matrix(2.8346458,0,0,-2.8346458,158.95017,391.21935)"><path
         d="M -146.72524,-86.572952 H 530.60808 V 294.42704 h -677.33332 z"
         id="path5449"
         style="stroke-width:0.352778" /></g></clipPath><clipPath
     clipPathUnits="userSpaceOnUse"
     id="clipPath5441"><g
       id="g5445"
       transform="matrix(2.8346458,0,0,-2.8346458,146.51467,387.88156)"><path
         d="M -146.72524,-86.572952 H 530.60808 V 294.42704 h -677.33332 z"
         id="path5443"
         style="stroke-width:0.352778" /></g></clipPath><clipPath
     clipPathUnits="userSpaceOnUse"
     id="clipPath5435"><g
       id="g5439"
       transform="matrix(2.8346458,0,0,-2.8346458,121.13377,389.64025)"><path
         d="M -146.72524,-86.572952 H 530.60808 V 294.42704 h -677.33332 z"
         id="path5437"
         style="stroke-width:0.352778" /></g></clipPath><clipPath
     clipPathUnits="userSpaceOnUse"
     id="clipPath5429"><g
       id="g5433"
       transform="matrix(2.8346458,0,0,-2.8346458,250.03228,397.32776)"><path
         d="M -146.72524,-86.572952 H 530.60808 V 294.42704 h -677.33332 z"
         id="path5431"
         style="stroke-width:0.352778" /></g></clipPath><clipPath
     clipPathUnits="userSpaceOnUse"
     id="clipPath5423"><g
       id="g5427"
       transform="matrix(2.8346458,0,0,-2.8346458,235.27448,404.98306)"><path
         d="M -146.72524,-86.572952 H 530.60808 V 294.42704 h -677.33332 z"
         id="path5425"
         style="stroke-width:0.352778" /></g></clipPath><clipPath
     clipPathUnits="userSpaceOnUse"
     id="clipPath5417"><g
       id="g5421"
       transform="matrix(2.8346458,0,0,-2.8346458,218.86528,397.36585)"><path
         d="M -146.72524,-86.572952 H 530.60808 V 294.42704 h -677.33332 z"
         id="path5419"
         style="stroke-width:0.352778" /></g></clipPath><clipPath
     clipPathUnits="userSpaceOnUse"
     id="clipPath5411"><g
       id="g5415"
       transform="matrix(2.8346458,0,0,-2.8346458,200.67287,404.98306)"><path
         d="M -146.72524,-86.572952 H 530.60808 V 294.42704 h -677.33332 z"
         id="path5413"
         style="stroke-width:0.352778" /></g></clipPath><clipPath
     clipPathUnits="userSpaceOnUse"
     id="clipPath5405"><g
       id="g5409"
       transform="matrix(2.8346458,0,0,-2.8346458,184.26467,421.31215)"><path
         d="M -146.72524,-86.572952 H 530.60808 V 294.42704 h -677.33332 z"
         id="path5407"
         style="stroke-width:0.352778" /></g></clipPath><clipPath
     clipPathUnits="userSpaceOnUse"
     id="clipPath5399"><g
       id="g5403"
       transform="matrix(2.8346458,0,0,-2.8346458,175.56057,410.73994)"><path
         d="M -146.72524,-86.572952 H 530.60808 V 294.42704 h -677.33332 z"
         id="path5401"
         style="stroke-width:0.352778" /></g></clipPath><clipPath
     clipPathUnits="userSpaceOnUse"
     id="clipPath5393"><g
       id="g5397"
       transform="matrix(2.8346458,0,0,-2.8346458,157.96197,404.98306)"><path
         d="M -146.72524,-86.572952 H 530.60808 V 294.42704 h -677.33332 z"
         id="path5395"
         style="stroke-width:0.352778" /></g></clipPath><clipPath
     clipPathUnits="userSpaceOnUse"
     id="clipPath5387"><g
       id="g5391"
       transform="matrix(2.8346458,0,0,-2.8346458,135.89357,411.19595)"><path
         d="M -146.72524,-86.572952 H 530.60808 V 294.42704 h -677.33332 z"
         id="path5389"
         style="stroke-width:0.352778" /></g></clipPath><clipPath
     clipPathUnits="userSpaceOnUse"
     id="clipPath5381"><g
       id="g5385"
       transform="matrix(2.8346458,0,0,-2.8346458,121.79788,423.19206)"><path
         d="M -146.72524,-86.572952 H 530.60808 V 294.42704 h -677.33332 z"
         id="path5383"
         style="stroke-width:0.352778" /></g></clipPath></defs><sodipodi:namedview
   id="namedview134"
   pagecolor="#ffffff"
   bordercolor="#000000"
   borderopacity="0.25"
   inkscape:showpageshadow="2"
   inkscape:pageopacity="0.0"
   inkscape:pagecheckerboard="0"
   inkscape:deskcolor="#d1d1d1"
   showgrid="false"
   inkscape:zoom="1.573529"
   inkscape:cx="125.83181"
   inkscape:cy="117.88788"
   inkscape:window-width="1854"
   inkscape:window-height="1003"
   inkscape:window-x="0"
   inkscape:window-y="0"
   inkscape:window-maximized="1"
   inkscape:current-layer="Layer_1" />



<g
   id="g1"><g
     id="g776"
     transform="matrix(0.65092093,0,0,-0.65092093,175.22489,122.73325)"
     clip-path="url(#clipPath5549)"><path
       d="M 0,0 V 0.001 L 0.064,0.058 0.021,0.018 Z m 1.468,24.236 c 0.046,0.074 0.093,0.147 0.139,0.221 0.07,0.086 0.139,0.172 0.209,0.258 0.05,0.053 0.102,0.103 0.153,0.155 0.043,0.037 0.086,0.075 0.129,0.113 0.019,0.016 0.039,0.033 0.058,0.048 0.012,0.024 0.024,0.046 0.035,0.07 0.001,0.017 0.002,0.036 0.003,0.053 H 2.86 V 154.793 H -175.775 V 25.154 h 0.113 v -1.528 l 0.053,-0.02 0.287,-0.094 0.218,-0.152 0.5,-0.211 0.157,-0.095 0.02,-0.13 -0.075,-0.137 0.041,-0.143 0.089,-0.096 0.908,-0.341 0.028,-0.157 -0.042,-0.137 -0.053,-0.089 -0.057,-0.051 -0.128,-0.113 0.001,-0.022 0.006,-0.156 -0.088,-0.154 -0.001,-0.003 0.062,-0.075 0.014,-0.003 0.116,-0.026 0.019,-0.005 0.048,-0.048 0.103,-0.327 0.117,-0.178 0.224,-0.096 0.09,-0.082 0.016,-0.034 0.09,-0.187 0.044,-0.093 -0.025,-0.062 -0.04,-0.101 -0.017,-0.042 -0.027,-0.286 -0.035,-0.074 -0.116,-0.242 -0.025,-0.036 -0.015,-0.024 -0.226,-0.158 h -0.001 l -0.082,-0.341 -0.136,-0.11 -0.205,-0.272 -0.013,-0.117 0.008,-0.023 0.074,-0.195 0.041,-0.253 -0.003,-0.118 -0.011,-0.422 -0.109,-0.129 -0.119,-0.019 -0.1,-0.016 h -0.001 l -0.011,-0.008 -0.111,-0.08 0.007,-0.103 0.034,-0.041 0.081,-0.047 0.22,-0.055 0.008,-0.009 0.032,-0.032 -0.02,-0.151 -0.096,-0.191 -0.17,-0.041 -0.041,-0.218 -0.044,-0.042 -0.066,-0.061 -0.068,-0.322 0.021,0.014 0.163,0.097 0.037,0.006 0.052,0.007 0.267,-0.095 0.023,0.012 0.025,0.014 0.068,0.165 0.299,-0.011 0.091,-0.003 0.118,0.051 0.135,0.059 h 0.205 l 0.225,-0.068 0.088,0.022 0.07,0.019 h 0.094 0.021 l 0.054,-0.1 0.021,-0.037 10e-4,-10e-4 0.129,-0.096 0.07,-0.123 0.053,-0.095 h 0.001 l 0.102,0.014 0.109,0.051 0.028,0.013 0.054,0.025 0.093,0.003 0.147,0.004 0.136,-0.103 0.027,-0.044 0.069,-0.113 -0.048,-0.104 -0.096,-0.204 -0.007,-0.177 0.116,-0.151 0.035,-0.163 -0.014,-0.253 0.015,-0.02 0.005,-0.007 0.114,-0.161 0.03,-0.044 0.016,-0.078 0.032,-0.148 0.043,-0.023 0.237,-0.134 0.171,-0.143 0.02,0.012 0.063,0.039 0.095,0.058 0.029,-0.01 0.012,-0.004 10e-4,-0.005 0.006,-0.077 0.075,-0.04 0.015,-0.028 0.019,-0.033 0.02,-0.247 0.06,-0.056 0.057,-0.053 0.075,-0.021 0.26,-0.075 0.211,0.014 0.126,0.058 0.114,0.051 0.656,0.184 0.091,0.052 0.093,0.053 0.021,0.011 0.089,-0.012 0.052,-0.019 0.044,-0.016 0.113,-0.12 0.017,-0.016 -0.007,-0.079 -0.007,-0.079 -0.046,-0.1 -0.057,-0.125 -0.004,-0.037 -0.016,-0.134 0.048,-0.197 0.082,-0.165 0.058,-0.038 0.147,-0.099 0.076,0.009 0.17,0.019 -0.025,-0.072 -0.002,-0.008 -0.021,-0.063 -0.005,-0.116 -0.002,-0.055 0.041,-0.11 -0.007,-0.143 0.028,-0.074 0.013,-0.036 0.042,-0.022 0.03,-0.017 0.079,-0.043 0.001,-0.016 0.006,-0.079 0.088,-0.081 -0.006,-0.082 v -0.001 l 0.075,-0.096 0.004,-0.078 0.003,-0.072 -0.01,-0.04 -0.009,-0.034 -0.022,-0.09 -0.123,-0.095 -0.017,-0.147 -0.004,-0.031 -0.059,-0.123 -0.002,-0.007 -0.073,-0.019 -0.03,-0.008 -0.171,-0.267 -0.164,-0.082 -0.032,-0.045 -0.002,-0.003 -0.041,-0.177 0.007,-0.123 0.095,-0.17 0.028,-0.287 -0.055,-0.117 -0.116,-0.266 -0.063,-0.158 -10e-4,-0.003 -0.025,-0.065 -0.034,-0.016 -0.028,-0.014 -0.075,-0.037 -0.048,-0.274 -0.006,-0.041 -0.13,-0.198 -0.117,-0.101 -0.034,-0.029 -0.294,-0.45 -0.246,-0.253 -0.021,-0.035 -0.081,-0.129 0.005,-0.05 0.022,-0.223 -0.025,-0.054 -0.228,-0.486 -0.041,-0.055 -0.184,-0.04 -0.082,-0.042 -0.048,-0.156 -0.059,-0.106 -0.021,-0.036 -0.098,-0.173 -0.03,-0.132 -0.004,-0.018 0.013,-0.023 0.007,-0.011 0.383,0.041 0.113,-0.069 0.01,-0.007 0.036,-0.124 0.012,-0.04 -0.044,-0.138 -0.072,-0.223 V 4.918 l 0.017,-0.052 0.065,-0.187 -0.039,-0.061 -0.009,-0.014 -0.132,0.036 -0.148,0.04 -0.071,-0.015 -0.093,-0.019 -0.019,-0.088 -0.021,-0.098 -0.008,-0.033 -0.438,-0.267 0.017,-0.036 0.065,-0.148 0.048,-0.226 -0.02,-0.185 -0.049,-0.009 -0.054,-0.01 -0.478,0.055 -0.267,-0.171 -0.1,0.003 -0.092,0.003 -0.046,10e-4 -0.493,0.116 -0.05,-0.005 -0.115,-0.009 -0.142,-0.082 -0.036,-0.088 -0.027,-0.062 0.083,-0.031 0.122,-0.045 0.03,-0.187 0.006,-0.031 0.211,-0.171 0.083,-0.267 0.056,-0.05 0.107,-0.093 V 2.214 l -0.178,-0.185 -0.072,-0.015 -0.014,-0.003 -0.071,-0.016 -0.284,-0.355 -0.072,-0.089 -0.002,-0.02 -0.005,-0.042 0.055,-0.13 -0.123,-0.122 -0.034,-0.116 V 1.12 l 0.034,-0.082 0.082,-0.055 -0.002,-0.014 -0.025,-0.128 -0.031,-0.029 -0.085,-0.081 -0.199,-0.054 -0.019,-0.018 -0.008,-0.007 -0.026,-0.023 0.04,-0.178 0.069,-0.051 0.033,-0.024 0.008,-0.149 -0.046,-0.287 -0.017,-0.104 -0.005,-0.047 -0.082,-0.127 -0.083,-0.126 0.004,-0.058 0.002,-0.029 10e-4,-0.002 0.007,-0.006 0.059,-0.044 0.071,-0.052 -0.015,-0.192 -0.064,-0.109 -0.003,-0.007 -0.058,-0.048 -0.128,-0.109 h 0.001 -0.001 l 0.016,-0.042 0.013,-0.033 0.076,-0.034 0.047,-0.021 0.019,-0.096 -0.056,-0.008 -0.026,-0.005 -0.183,-0.109 -0.371,-0.029 -0.231,-0.019 -0.123,-0.054 -0.13,-0.178 -0.051,-0.071 -0.085,-0.12 -0.137,-0.117 -0.123,-0.041 -0.149,-0.01 -0.125,-0.01 -0.162,0.03 -0.241,0.045 -0.335,-0.26 0.028,-0.15 0.006,-0.034 -0.041,-0.184 0.041,-0.105 0.007,-0.018 -0.178,-0.089 0.043,-0.114 0.039,-0.105 -0.024,-0.134 -0.01,-0.057 -0.041,-0.021 -0.171,0.007 -0.027,-0.027 10e-4,-0.007 0.006,-0.041 0.007,-0.005 0.109,-0.07 0.02,-0.45 v -10e-4 l 0.033,-0.041 0.015,-0.02 0.233,0.014 0.157,0.04 0.049,-0.056 0.101,-0.115 0.034,-0.016 0.009,-0.004 0.039,-0.02 0.082,-0.164 0.022,-0.022 0.087,-0.081 0.008,-0.006 0.015,-0.011 0.026,-0.017 0.113,0.012 0.085,0.009 0.004,-0.015 0.023,-0.074 0.073,-0.003 0.078,-0.004 0.12,-0.272 0.037,-0.083 0.184,-0.158 0.03,-0.036 0.005,-0.005 0.081,-0.136 0.076,-0.129 0.034,-0.192 0.068,-0.068 0.13,-0.082 0.192,0.123 0.095,0.014 0.416,-0.438 0.083,-0.029 0.088,-0.032 -0.034,-0.389 v -10e-4 l 0.137,-0.075 0.123,0.02 0.165,0.028 0.006,-0.389 0.705,-0.39 0.044,-0.179 0.003,-0.012 -0.033,-0.334 0.04,-0.089 0.044,-0.036 0.031,-0.026 0.13,-0.027 0.162,-0.13 0.145,-0.116 0.012,-0.038 0.043,-0.14 0.219,-0.294 -0.062,-0.265 0.021,-0.178 0.049,-0.122 0.033,-0.083 0.134,0.003 0.132,0.004 0.158,-0.089 0.027,-0.082 -0.007,-0.13 0.044,-0.17 0.011,-0.042 0.03,-0.035 0.086,-0.102 0.097,-0.036 0.067,-0.025 0.178,0.041 0.024,0.018 0.018,0.014 0.04,0.029 0.062,0.113 0.068,0.12 0.036,0.026 0.039,0.028 0.075,0.028 0.089,-0.171 0.02,-0.149 v -10e-4 l 0.015,-0.012 10e-4,-10e-4 0.025,-0.022 0.035,0.089 0.047,0.026 0.001,10e-4 0.04,0.021 0.066,-0.032 0.099,-0.05 0.109,-0.084 0.096,-0.073 0.093,-0.011 0.078,-0.01 0.109,0.028 0.189,0.093 0.201,0.098 0.072,0.068 0.064,0.062 0.063,0.009 0.081,0.011 0.016,-0.024 0.066,-0.099 0.077,-0.043 0.046,-0.025 0.221,-0.048 0.182,-0.041 0.094,0.01 0.118,0.012 0.12,0.087 0.181,0.13 0.058,0.02 0.024,0.008 0.139,-0.009 0.278,-0.019 0.243,-0.057 0.071,-0.018 0.178,0.069 0.033,0.204 0.008,0.049 -0.007,0.259 0.24,0.184 0.251,0.04 0.138,0.021 0.062,0.056 0.198,-0.056 0.092,0.004 0.052,10e-4 0.068,0.003 0.079,0.025 0.27,0.084 0.136,0.102 0.088,0.143 0.055,0.09 h 0.001 l 0.016,0.123 0.018,0.123 0.17,0.014 0.15,0.013 0.105,-0.011 0.101,-0.009 0.132,-0.082 0.114,-0.069 0.114,-0.02 0.036,-0.007 0.064,0.034 0.053,0.027 0.098,-0.142 0.202,-0.294 0.107,-0.013 0.297,-0.035 0.083,0.021 0.128,0.033 0.136,-0.018 0.069,-0.009 0.1,0.117 0.297,0.354 -0.144,0.26 0.025,0.011 0.098,0.05 0.85,0.249 0.011,0.004 0.095,0.124 0.04,0.053 0.016,0.021 0.101,0.081 0.042,0.035 0.226,0.102 0.027,0.054 0.007,0.015 v 0.191 l 0.023,0.038 0.018,0.03 0.123,0.067 0.171,0.091 0.239,0.477 0.117,-0.055 0.088,-0.286 0.11,-0.054 0.014,-0.123 0.059,-0.023 0.029,-0.012 0.076,-0.116 0.088,-0.137 0.03,-0.008 0.128,-0.039 0.041,0.014 0.054,0.02 0.007,0.022 0.002,0.009 0.005,0.017 0.075,0.027 0.115,0.005 0.07,0.002 0.061,-0.062 0.062,-0.061 0.11,0.07 0.061,0.039 0.133,-0.096 0.019,-0.013 0.114,-0.082 -0.013,-0.211 v -0.001 l 0.109,-0.184 0.058,-0.058 0.058,-0.058 v -0.109 l -0.041,-0.055 -0.02,-0.027 0.013,-0.096 0.062,-0.041 0.125,0.005 h 0.011 l 0.035,0.002 -0.083,-0.27 -0.088,-0.283 0.1,-0.105 0.037,-0.04 0.089,-0.34 0.039,-0.064 0.049,-0.08 0.308,-0.137 -0.164,-0.335 -0.499,-0.546 0.103,-0.032 0.075,-0.023 0.114,0.046 0.316,0.125 0.164,-0.055 0.003,-0.008 0.011,-0.025 -0.056,-0.144 -0.011,-0.03 -0.015,-0.038 0.005,-0.013 0.025,-0.058 0.032,-0.073 0.121,-0.094 0.07,-0.056 0.048,-0.13 -0.02,-0.036 -0.021,-0.039 -0.107,-0.085 -0.017,-0.015 -0.088,-0.071 -0.109,-0.225 0.006,-0.143 0.078,-0.134 0.08,-0.133 0.02,-0.086 0.014,-0.057 0.02,-0.608 0.205,-0.417 0.081,-0.036 0.042,-0.018 0.185,-0.151 -0.014,-0.123 0.043,-0.024 0.005,-0.003 0.065,-0.008 0.174,-0.02 0.188,-0.104 0.045,-0.025 0.043,0.007 0.114,0.02 0.148,0.153 0.05,0.052 0.074,0.034 0.043,0.021 0.03,-0.002 0.058,-0.005 0.195,-0.093 0.078,-0.037 0.336,0.006 0.506,0.008 0.031,0.062 0.057,0.115 0.047,0.041 0.216,0.054 0.088,0.022 0.025,0.006 0.054,0.032 0.06,0.034 0.18,0.105 0.093,0.051 0.057,0.031 0.034,0.033 0.117,0.111 0.115,0.211 0.195,0.087 0.113,0.05 0.101,0.006 h 0.002 l 0.881,0.527 0.031,0.048 0.051,0.082 0.092,0.048 0.025,0.013 0.116,0.151 0.123,-0.062 0.137,0.149 0.195,0.134 0.044,0.031 0.02,0.029 0.076,0.107 0.281,-0.005 0.095,-0.002 0.025,-0.006 0.091,-0.028 0.175,-0.105 0.05,-0.032 0.123,-0.012 0.089,0.033 0.212,-0.13 0.043,-0.097 0.005,-0.012 0.301,-0.321 0.005,-0.033 0.036,-0.24 -0.014,-0.048 -0.012,-0.042 -0.001,-0.006 0.082,-0.095 0.106,0.016 0.064,0.011 0.09,-0.06 0.054,-0.036 -0.058,-0.193 -0.017,-0.059 0.053,-0.078 0.131,-0.195 0.017,-0.024 0.031,-0.046 0.014,-0.019 0.116,-0.075 0.458,-0.014 0.403,-0.205 0.294,0.007 0.064,-0.007 0.256,-0.026 0.015,-0.001 0.22,-0.089 0.067,-0.028 0.349,0.206 0.185,0.287 -0.035,0.071 -0.116,0.243 -0.278,0.295 -0.043,0.046 v 0.246 l 0.103,0.294 -0.063,0.148 -0.047,0.112 0.004,0.038 0.023,0.2 0.166,0.365 0.005,0.011 0.023,0.022 0.066,0.067 0.383,0.246 0.417,0.403 0.109,0.088 0.184,0.148 0.268,0.214 0.14,-0.026 0.297,-0.056 0.04,-0.064 0.048,-0.079 0.061,-0.04 0.043,-0.028 0.036,-0.002 0.099,-0.004 0.131,-0.114 0.067,-0.057 0.267,-0.335 0.066,-0.016 0.132,-0.032 0.057,-0.1 0.005,-0.009 v -0.185 l 0.019,-0.063 0.01,-0.034 0.032,-0.108 0.069,-0.055 0.047,0.003 0.096,0.004 h 0.479 l 0.082,0.055 0.165,0.219 0.088,0.013 0.169,-0.058 0.125,-0.044 0.148,-0.107 0.023,-0.016 h 0.095 l 0.163,0.137 0.097,0.081 0.163,0.128 0.09,0.071 0.032,0.059 0.023,0.043 0.05,0.103 0.073,0.149 0.19,0.107 0.165,0.091 0.081,0.273 0.094,0.316 0.03,0.102 0.298,0.183 0.112,0.069 0.329,0.253 0.205,0.287 -0.041,0.342 0.198,0.205 0.26,0.095 0.083,-0.006 0.286,-0.021 0.485,-0.157 0.038,0.051 0.051,0.065 -0.205,0.123 -0.109,0.103 -0.117,0.299 -0.026,0.025 -0.042,0.037 0.007,0.041 0.02,0.109 0.214,0.155 0.032,0.023 0.021,0.005 0.246,0.057 0.191,0.09 0.185,0.087 0.028,0.022 0.088,0.067 0.264,0.278 0.022,0.024 0.07,0.073 0.048,0.119 0.095,0.237 0.054,0.098 0.069,0.127 0.445,0.486 0.834,0.306 0.169,-0.024 0.254,-0.037 0.041,0.011 0.072,0.019 0.304,0.079 0.357,0.044 0.04,0.004 0.163,-0.041 0.133,0.096 0.162,0.116 0.115,0.116 0.138,0.252 0.075,0.138 0.027,0.017 0.037,0.025 0.092,0.059 0.317,-0.006 h 0.039 l 0.095,-0.041 0.024,-0.03 0.022,-0.029 0.071,-0.091 0.056,-0.136 0.018,-0.045 0.021,-0.051 0.007,-0.505 v -0.001 l 0.055,-0.029 0.048,-0.026 h 0.004 l 0.085,-0.021 0.033,-0.003 0.138,-0.016 0.012,-0.037 0.004,-0.011 0.031,-0.09 -0.005,-0.052 -0.007,-0.072 -0.001,-0.012 -0.024,-0.032 -0.031,-0.043 0.033,-0.029 0.029,-0.025 0.084,0.815 0.039,0.373 0.191,-0.105 0.007,-0.004 0.009,-0.001 0.093,-0.013 0.111,0.368 -0.015,0.295 0.458,0.464 0.198,0.533 0.294,0.021 0.052,0.167 0.146,0.481 0.083,0.144 0.156,-0.043 0.192,-0.053 0.07,0.028 0.101,0.04 0.193,0.202 0.122,0.126 0.058,0.028 0.071,0.034 0.048,0.103 -0.048,0.197 -0.109,0.171 -0.007,0.082 0.066,0.043 0.05,0.032 -0.026,0.101 -0.021,0.084 0.071,0.111 0.024,0.039 0.12,0.022 0.014,0.003 0.119,0.023 0.073,-0.004 0.344,-0.017 0.346,0.06 0.092,0.015 0.055,0.081 0.045,0.067 0.002,0.003 0.03,0.073 0.032,0.077 0.024,0.179 0.003,0.018 0.036,0.049 0.026,0.034 0.307,0.167 0.205,0.113 0.033,0.049 0.07,0.101 0.157,0.137 0.171,-0.014 0.073,-0.085 0.2,-0.229 0.015,-0.015 0.006,-0.006 0.185,0.032 0.177,0.03 0.081,-0.031 0.076,-0.031 0.342,-0.082 0.067,0.087 0.09,0.118 0.278,0.077 0.043,0.012 0.178,0.055 0.128,0.174 0.084,0.113 0.069,0.478 1.045,0.41 0.133,0.074 0.161,0.09 0.157,0.115 0.232,0.172 0.021,0.014 0.381,0.241 0.275,0.175 0.061,0.001 0.074,0.003 0.063,0.002 0.408,0.05 0.043,0.005 0.265,0.151 0.166,0.095 0.233,0.349 -0.008,0.106 -0.033,0.426 0.029,0.1 0.039,0.132 0.178,0.199 0.082,0.212 0.088,0.129 0.253,0.164 v 0.177 l -0.068,0.069 0.172,0.246 0.054,0.075 0.04,0.011 0.183,0.05 h 0.002 l 0.246,0.479 0.077,0.122 0.074,0.117 0.109,0.197 0.349,0.185 -0.034,0.253 -0.192,0.144 -0.011,0.086 -0.009,0.084 -0.134,0.268 -0.126,0.252 v 0.19 l 0.096,0.096 0.622,0.15 0.157,0.069 0.588,0.089 0.263,-0.043 0.161,-0.026 0.167,-0.015 0.127,-0.012 0.043,-0.016 0.073,-0.025 0.628,0.109 h 0.001 l 0.089,0.089 0.032,0.072 0.029,0.065 0.044,0.027 0.031,0.021 0.105,-0.01 0.046,-0.004 0.294,-0.263 0.157,-0.14 0.02,-0.001 0.109,-0.006 h 0.001 l 0.046,0.023 0.063,0.032 0.096,0.123 0.161,-0.028 0.119,-0.02 0.301,0.02 0.272,0.056 0.165,0.033 0.608,0.281 0.348,0.204 0.039,0.03 0.276,0.216 0.064,0.021 0.223,0.074 0.07,0.054 0.019,0.015 0.001,0.01 0.006,0.079 -0.363,0.54 0.014,0.101 0.194,0.163 0.025,0.022 0.634,0.812 0.138,0.178 0.011,0.022 0.105,0.225 0.028,0.018 0.068,0.043 0.057,0.007 0.053,0.006 0.17,-0.034 0.069,-0.014 0.109,-0.061 0.153,0.025 0.141,0.023 1.153,0.048 h 0.016 l 0.051,0.076 0.236,0.354 0.088,0.076 0.056,0.046 0.093,0.052 0.071,0.038 h 0.656 l 0.347,-0.027 h 0.008 l 0.499,0.082 0.155,-0.025 0.228,-0.037 0.188,-0.172 0.065,-0.06 0.239,-0.301 0.076,-0.046 0.314,-0.193 0.28,-0.014 0.129,-0.007 0.309,-0.104 0.074,-0.024 0.085,-0.083 0.175,-0.17 0.361,-0.281 0.094,-0.048 0.187,-0.095 0.151,-0.286 0.079,-0.066 0.145,-0.12 0.042,-0.19 -0.021,-0.356 0.016,-0.025 0.114,-0.187 0.315,-0.062 0.061,-0.013 0.287,0.164 0.115,-0.009 0.145,-0.011 0.114,-0.174 0.098,-0.148 0.177,-0.161 0.013,-0.011 0.035,-0.032 0.335,0.115 0.294,-0.313 0.349,-0.015 0.099,-0.035 0.229,-0.08 0.15,-0.089 0.01,-0.007 0.059,-0.034 0.205,0.123 0.232,-0.157 0.135,-0.016 0.166,-0.018 0.185,-0.238 0.006,-0.008 0.012,-0.009 0.084,-0.066 0.238,-0.114 0.049,-0.023 0.045,-0.119 0.058,-0.155 0.001,-0.011 0.012,-0.261 0.039,-0.093 0.002,-0.003 0.016,-0.008 0.059,-0.029 0.021,-0.011 0.319,0.088 0.324,0.09 0.072,0.042 0.078,0.046 0.517,-0.223 0.338,-0.145 0.08,-0.005 0.172,-0.009 0.065,-0.149 0.004,-0.008 0.068,-0.15 0.096,-0.051 0.047,-0.025 0.117,-0.335 0.003,-0.002 0.14,-0.093 0.011,-0.005 0.003,-0.002 0.002,-10e-4 0.014,-0.01 0.004,-0.003 -0.234,-0.286 -0.011,-0.014 -0.24,-0.225 -0.071,-0.196 -0.038,-0.105 0.152,-0.038 0.231,-0.058 0.142,-0.266 -0.259,-0.098 -0.105,-0.039 -0.052,-0.019 0.078,-0.206 0.032,-0.082 0.369,-0.218 0.043,-0.157 0.066,-0.24 0.183,-0.029 0.152,-0.026 0.149,-0.11 0.124,-0.094 0.15,-0.239 -0.036,-0.194 -0.031,-0.168 0.027,-0.017 0.089,-0.052 0.098,0.003 0.148,0.004 0.077,-0.06 0.018,-0.015 0.038,-0.208 0.016,-0.093 -0.055,-0.037 -0.368,-0.242 -0.131,-0.132 -0.053,-0.053 -0.118,-0.081 -0.142,-0.096 -0.126,0.062 -0.016,0.009 -0.036,0.018 -0.022,0.031 -0.002,0.005 -0.126,0.182 L -98.55,1.79 -98.669,1.773 -98.7,1.77 -98.748,1.763 h -0.007 l -0.041,-0.011 -0.362,-0.099 -0.113,-0.057 -0.256,-0.134 -0.486,-0.033 -0.201,-0.141 -0.004,-0.003 -0.225,-0.294 -0.226,-0.131 -0.499,0.022 -0.314,-0.055 -0.383,-0.198 -0.52,-0.403 -0.135,-0.037 -0.425,-0.114 -0.144,-0.082 -0.097,-0.088 -0.034,-0.032 -0.197,-0.18 -0.291,-0.432 -0.092,-0.135 -0.03,-0.025 -0.175,-0.146 -0.206,-0.129 -0.402,-0.254 -0.316,-0.27 -0.074,-0.064 -0.398,-0.57 -0.156,-0.222 -0.142,-0.225 -0.021,-0.06 -0.055,-0.166 -0.122,-0.482 -0.036,-0.139 -0.088,-0.123 -0.02,-0.017 -0.287,-0.23 -0.066,-0.096 -0.112,-0.163 -0.036,-0.169 -0.019,-0.091 0.028,-0.458 0.08,-0.24 0.022,-0.066 0.103,-0.123 0.225,-0.13 0.232,-0.287 0.036,-0.051 0.092,-0.132 0.077,-0.111 0.058,-0.126 0.01,-0.025 0.041,-0.347 0.083,-0.13 0.021,-0.025 0.252,-0.283 0.197,-0.196 0.048,-0.048 0.07,-0.07 0.293,-0.382 0.027,-0.064 0.171,-0.415 -0.027,-0.269 -0.006,-0.059 0.002,-0.021 0.011,-0.121 0.007,-0.083 0.082,-0.212 0.109,-0.137 0.135,-0.085 0.036,-0.023 0.033,-0.037 0.083,-0.093 0.038,-0.128 0.01,-0.036 -0.044,-0.122 -0.031,-0.083 -0.137,-0.192 -0.07,-0.058 -0.142,-0.119 -0.149,-0.191 -0.104,-0.26 -0.034,-0.053 -0.109,-0.172 0.009,-0.108 0.005,-0.07 0.218,-0.13 -0.12,-0.248 -0.119,-0.243 -0.023,-0.023 -0.099,-0.093 -0.043,-0.03 -0.136,-0.093 -0.125,0.012 -0.184,0.019 -0.032,0.003 h -0.001 l -0.013,-0.069 0.036,-0.038 0.035,-0.038 0.024,-0.026 -0.013,-0.016 -0.04,-0.046 -0.084,0.011 -0.08,0.01 -0.134,0.139 -0.263,0.271 -0.274,-0.015 -0.115,-0.005 -0.103,-0.125 -0.185,-0.224 -0.888,-0.356 -0.252,0.117 -0.342,-0.117 0.005,-0.116 0.009,-0.177 -0.609,-0.266 0.091,-0.117 0.053,-0.068 0.39,0.103 0.087,-0.018 0.019,-0.004 0.063,-0.012 0.037,-0.151 0.04,-0.164 0.034,-0.074 0.085,-0.185 0.045,-0.095 0.034,-0.274 -0.171,-0.109 -0.061,0.004 -0.198,0.011 -0.309,0.019 -0.396,-0.13 -0.034,-0.048 0.002,-0.049 0.004,-0.068 10e-4,-0.019 -0.123,-0.13 0.007,-0.055 0.136,-0.089 0.05,-0.072 0.012,-0.017 0.016,-0.053 0.004,-0.013 0.021,-0.064 0.006,-0.047 0.003,-0.025 0.004,-0.036 -0.102,-0.185 0.13,-0.259 -0.001,-0.002 -0.027,-0.046 -0.191,-0.041 -0.157,-0.096 -0.036,-0.082 -0.053,-0.123 -0.109,-0.01 -0.13,-0.01 -0.05,-0.024 -0.053,-0.024 -0.057,-0.13 -0.018,-0.041 -0.294,-0.151 -0.005,-0.004 -0.323,-0.309 -0.131,-0.053 -0.108,-0.043 -0.12,-0.094 -0.106,-0.084 -0.073,-0.017 -0.115,-0.027 -0.188,-0.044 -0.132,0.027 -0.23,0.048 -0.078,-0.068 -0.12,-0.103 -0.124,0.041 -0.225,-0.027 -0.294,-0.13 -0.029,-0.047 -0.019,-0.029 0.062,-0.054 0.047,0.017 0.124,0.044 0.218,0.028 0.082,-0.031 0.082,-0.031 0.062,-0.083 0.014,-0.019 -0.007,-0.062 -0.001,-10e-4 -0.109,-0.142 -0.041,-0.096 0.11,-0.11 0.048,-0.142 0.006,-0.192 -0.054,-0.129 -0.077,-0.025 -0.183,-0.057 -0.13,-0.308 -0.062,-0.014 -0.184,0.062 -0.072,-0.046 -0.078,-0.05 -0.178,-0.041 -0.097,0.036 -0.108,0.039 -0.044,-0.035 -0.066,-0.054 -0.063,-0.003 -0.006,-10e-4 -0.054,-0.001 -0.164,-0.082 -0.049,-0.004 -0.004,-0.001 -0.036,-0.002 -0.077,0.017 -0.066,0.017 -0.062,-0.014 v -0.001 l -0.008,-0.058 -0.005,-0.031 0.116,-0.258 -0.157,-0.301 -0.035,-0.322 -0.189,-0.215 -0.002,-0.002 -0.055,-0.097 0.069,-0.04 0.048,0.018 0.041,0.015 0.259,0.01 0.315,0.011 0.023,-0.023 0.004,-0.005 0.008,-0.11 0.006,-0.095 0.014,-0.003 0.013,-0.003 0.044,0.013 0.072,0.021 0.158,0.129 0.294,0.083 0.209,0.15 0.098,0.068 0.157,0.069 0.081,0.007 0.039,0.004 0.092,0.009 0.287,-0.109 0.088,-0.005 0.035,-0.002 0.13,0.191 0.226,0.048 0.092,-0.016 0.099,-0.018 0.287,-0.212 0.342,-0.075 0.247,0.052 0.218,0.044 0.171,0.082 0.173,-0.07 0.08,-0.033 0.239,0.024 0.26,0.024 0.209,-0.123 0.058,-0.033 0.049,-0.007 0.034,-0.004 0.087,-0.011 0.054,0.012 0.022,0.004 0.027,0.006 0.002,10e-4 0.196,0.155 10e-4,-0.001 0.033,-0.02 0.014,-0.109 0.005,-0.002 0.036,-0.018 0.073,0.018 0.064,0.016 0.279,-0.04 h 0.001 l 0.055,0.094 -0.066,0.13 -0.064,0.13 -0.004,0.058 -0.003,0.052 0.012,0.073 0.003,0.018 0.006,0.032 0.072,0.07 0.092,0.087 0.204,0.067 0.111,0.071 0.107,0.067 0.028,-0.014 0.212,-0.185 0.389,-0.136 0.035,-0.031 0.034,-0.031 0.048,-0.355 -0.035,-0.082 -0.026,-0.31 -0.008,-0.095 -0.013,-0.169 0.027,-0.033 0.085,0.022 0.065,0.018 0.017,-0.004 0.038,-0.009 0.034,-0.205 0.034,-0.05 0.062,-0.087 0.06,-0.033 0.001,-10e-4 0.143,0.048 0.041,0.013 0.082,-0.041 0.027,-0.034 0.024,-0.075 0.011,-0.035 0.034,-0.115 0.034,-0.014 0.349,0.068 0.328,-0.082 0.109,-0.12 0.014,-0.016 0.123,-0.287 h 0.001 l 0.149,-0.136 0.029,-0.125 0.021,-0.092 0.012,-0.05 0.041,-0.383 h 0.001 l 0.046,-0.518 -0.239,-0.465 -0.198,-0.267 0.055,-0.32 v -0.287 l 0.465,-0.636 0.137,-0.43 -0.192,-0.553 0.041,-0.41 0.198,-0.396 -0.075,-0.321 -0.41,-0.116 -0.075,-0.212 -0.171,-0.307 0.28,-0.273 0.069,-0.233 -0.294,-0.294 -0.274,-0.102 -0.007,-0.322 0.157,-0.211 0.479,-0.205 0.383,-0.102 0.362,0.061 0.308,0.096 0.376,-0.075 -0.035,-0.39 -0.253,-0.212 -0.068,-0.13 0.144,-0.798 0.458,-0.642 0.109,-0.109 0.28,-0.158 0.171,-0.212 0.151,0.062 0.328,0.055 0.314,0.396 0.096,0.028 0.437,-0.342 0.178,-0.034 0.041,-0.13 -0.349,-0.158 -0.293,-0.212 -0.042,-0.211 -0.034,-0.738 0.048,-0.205 0.253,-0.068 0.793,0.178 0.15,-0.048 0.26,-0.007 0.267,0.027 0.143,-0.082 0.376,-0.451 0.185,-0.32 0.219,-0.24 0.102,-0.047 0.404,-0.199 0.362,-0.082 0.581,-0.32 0.273,0.062 0.144,0.108 0.177,0.082 h 0.143 l 0.67,-0.143 0.239,0.054 0.158,0.116 0.102,0.082 0.089,0.178 -0.055,0.335 0.034,0.212 0.028,0.075 0.096,0.095 0.026,0.013 0.016,-0.015 0.078,-0.032 0.205,-0.082 0.053,-0.142 0.101,0.08 0.077,0.153 0.011,0.023 -0.016,0.095 0.447,0.153 0.266,0.232 0.157,0.178 0.194,0.278 0.037,0.013 0.263,0.23 0.078,0.087 0.077,0.087 0.106,0.154 0.041,0.058 0.011,0.008 0.759,0.233 0.485,0.389 0.315,0.212 0.423,0.151 0.424,0.094 0.848,0.404 0.383,0.061 0.157,0.068 0.308,0.451 0.259,0.15 0.204,0.096 0.09,0.02 0.26,-0.013 0.567,-0.04 0.206,-0.09 0.163,-0.15 0.109,-0.041 0.15,0.028 0.364,0.217 0.122,0.267 0.012,0.159 0.055,0.011 0.357,0.216 0.1,0.216 h 0.7 l 0.068,0.183 0.301,0.049 -0.124,0.225 -0.223,0.182 h 0.506 l 0.05,0.134 0.113,-0.043 0.231,-0.075 0.301,0.15 0.451,-0.048 -0.013,0.178 -0.322,0.362 0.004,0.019 0.019,-0.006 0.076,-0.025 0.296,0.148 h 10e-4 l 0.444,-0.047 -0.014,0.175 -0.216,0.245 0.6,0.386 0.643,0.156 0.608,0.042 0.123,0.062 0.157,0.171 0.253,0.164 0.055,0.204 -0.007,0.057 0.016,0.008 0.079,0.086 0.075,0.083 0.101,0.065 0.149,0.096 0.019,0.072 0.035,0.13 -0.021,0.169 -0.411,0.431 -0.093,0.034 -0.055,0.02 -0.31,-0.02 -0.004,0.01 -0.016,0.044 0.013,0.092 0.021,0.136 -0.065,0.135 -0.009,0.021 -0.041,0.03 -0.04,0.03 -0.076,-0.028 -0.066,-0.025 -0.169,0.019 -0.06,0.108 0.006,0.02 0.3,0.192 0.561,0.24 0.048,0.06 -0.018,0.319 0.437,0.186 0.047,0.061 -0.033,0.617 -0.034,0.616 0.128,1.145 -0.025,0.316 -0.036,0.411 0.013,0.012 0.196,0.183 0.028,0.081 -0.02,0.109 -0.014,0.08 0.027,0.296 0.148,0.356 0.052,0.02 0.032,0.012 0.131,-0.12 0.185,-0.006 0.307,-0.178 0.103,-0.034 0.472,-0.117 0.19,0.007 0.151,0.096 0.035,0.157 -0.063,0.11 -0.238,0.095 -0.028,0.13 0.004,0.005 0.166,-0.041 0.22,-0.055 0.189,0.007 0.098,0.064 0.05,0.031 0.024,0.114 0.009,0.04 -0.06,0.109 -0.012,0.004 -0.224,0.09 -0.018,0.087 -0.009,0.041 0.168,0.195 0.136,0.215 0.026,0.068 -0.303,0.188 -0.366,0.303 0.017,0.039 0.048,0.112 0.049,0.112 0.164,0.191 0.356,0.157 0.327,0.062 0.213,0.041 0.041,-0.008 0.013,-0.002 0.061,-0.012 0.237,-0.115 0.058,-0.027 0.3,0.034 0.225,-0.055 0.24,-0.184 0.586,-0.349 0.022,-0.014 0.186,-0.077 0.422,-0.175 0.021,0.005 0.055,0.015 0.239,0.219 0.109,0.013 0.117,-0.054 0.076,-0.069 0.135,-0.123 0.062,-0.101 0.004,-0.007 0.057,-0.096 0.165,0.028 0.28,0.286 0.287,0.109 0.047,0.013 0.083,0.021 0.292,-0.005 0.091,-0.002 0.294,-0.068 0.044,0.021 0.058,0.027 v 0.143 l -0.017,0.018 -0.051,0.051 -0.004,0.056 -0.003,0.053 0.091,0.103 0.004,0.005 0.007,0.008 0.043,0.026 0.128,0.077 0.121,0.164 0.071,0.096 0.053,0.092 0.179,0.303 0.011,0.079 0.002,0.013 0.008,0.059 -0.055,0.177 -0.075,0.082 -0.308,0.041 -0.041,0.035 0.028,0.095 0.321,0.144 0.089,0.205 0.082,0.068 0.003,0.167 10e-4,0.028 0.003,0.194 -0.084,0.348 -0.012,0.048 0.123,0.745 -0.042,0.159 -0.033,0.128 0.039,0.149 0.05,0.192 0.1,0.097 0.077,0.074 0.321,0.035 0.438,0.047 0.25,0.123 0.249,0.123 0.025,0.014 0.057,0.033 0.964,-0.231 0.232,0.055 0.233,0.245 0.038,0.005 0.071,0.008 0.276,-0.064 0.072,-0.018 0.156,0.005 0.05,0.002 0.266,-0.045 0.266,-0.044 0.732,0.007 0.136,0.053 0.199,0.077 0.182,-0.013 0.009,-10e-4 0.017,-0.003 0.311,-0.072 0.036,-0.016 0.185,-0.087 0.128,-0.061 0.402,-0.267 0.008,-0.005 0.118,-0.143 0.148,-0.179 0.225,-0.151 0.151,-0.102 0.349,-0.054 0.096,-0.014 0.369,0.096 0.26,0.178 0.184,0.177 0.087,0.114 0.07,0.091 0.011,0.147 0.002,0.031 0.008,0.115 -0.123,0.178 -0.183,0.055 -0.227,0.068 -0.137,0.13 0.007,0.246 0.039,0.077 0.057,0.114 0.162,0.192 0.097,0.115 0.561,0.41 0.308,0.287 0.131,0.085 0.037,0.024 0.139,0.09 0.067,0.026 0.046,0.019 0.058,0.022 0.246,-0.122 0.183,-0.132 0.036,-0.025 0.023,-0.044 0.059,-0.107 v -0.013 l 0.014,-0.41 0.157,-0.314 0.137,-0.027 0.546,0.245 0.164,0.054 0.667,0.006 0.236,0.001 0.868,0.096 0.271,-0.044 0.48,-0.078 0.431,-0.069 0.041,0.018 0.594,0.269 0.052,0.014 0.071,0.02 0.896,-0.014 0.541,-0.089 0.068,-0.055 0.158,-0.129 0.188,-0.292 0.022,-0.035 0.117,-0.254 0.027,-0.061 0.011,-0.01 0.044,-0.041 0.054,-0.051 0.152,0.013 0.094,0.082 0.049,0.041 0.088,0.151 0.096,0.068 0.05,-0.015 0.312,-0.101 h 0.001 l 0.03,-0.009 0.044,-0.012 0.075,-0.058 0.089,-0.071 0.043,-0.053 0.067,-0.084 0.082,-0.171 0.077,-0.074 0.114,-0.111 0.09,-0.032 0.014,-0.006 0.026,-0.01 0.438,-0.02 0.235,-0.042 0.031,-0.005 0.023,-0.004 0.21,-0.037 0.034,0.011 0.007,0.003 0.048,0.163 -0.014,0.059 -0.007,0.033 -0.019,0.086 0.007,0.018 0.022,0.051 0.011,0.026 0.01,0.01 0.147,0.141 0.082,0.027 0.414,-0.143 0.023,-0.007 0.023,0.019 0.09,0.08 0.004,0.003 0.097,0.183 0.121,0.227 0.055,0.035 0.13,0.082 0.213,0.041 0.279,0.053 0.185,-0.094 0.146,10e-4 0.291,0.004 0.076,-0.023 0.013,-0.003 0.023,-0.008 0.023,-0.006 h 0.002 l 0.171,0.054 0.136,0.178 0.026,0.006 0.097,0.021 0.082,-0.013 0.124,-0.021 0.867,-0.334 0.226,0.014 0.135,0.072 0.146,0.077 0.122,0.171 0.051,0.016 0.018,0.004 v 10e-4 l 0.085,0.182 0.017,0.036 0.103,0.096 0.26,0.137 0.122,0.389 -0.024,0.027 -0.064,0.069 -0.005,0.039 -0.009,0.07 0.035,0.12 0.041,0.139 0.204,0.219 0.118,0.04 0.107,0.035 0.058,-0.013 0.059,-0.013 0.05,0.009 0.059,0.01 0.15,-0.041 0.075,-0.02 0.05,0.015 0.477,0.149 0.28,0.014 0.123,0.006 0.061,-0.006 0.213,-0.021 0.021,-0.018 0.086,-0.072 0.016,-0.013 0.15,-0.082 h 0.055 l 0.15,0.096 0.226,0.034 0.07,0.046 0.066,0.043 0.069,0.014 0.156,0.04 0.083,0.021 0.052,-0.032 0.057,-0.036 h 0.089 l 0.032,0.018 0.021,0.01 0.036,0.02 0.178,0.178 0.068,0.023 0.185,0.065 0.172,-0.021 0.046,-0.006 0.151,0.062 0.273,0.034 0.657,0.559 0.211,0.107 0.117,0.057 0.321,-0.054 0.212,0.02 0.184,0.431 0.041,0.041 0.042,0.041 0.122,0.058 0.096,0.044 0.376,0.076 0.228,-0.05 0.087,-0.019 0.348,0.096 0.089,0.095 0.007,0.008 0.022,0.057 0.08,0.222 0.031,0.049 0.017,0.026 0.069,0.068 0.164,0.097 0.137,0.081 h 0.129 l 0.089,-0.096 -0.007,-0.136 0.021,-0.031 0.061,-0.092 0.068,-0.017 0.102,-0.024 0.136,0.005 0.276,0.008 0.174,0.005 0.085,0.002 0.056,0.011 0.204,0.037 0.073,0.03 0.112,0.045 0.218,0.012 0.164,0.009 0.218,0.027 0.023,0.038 0.026,0.044 0.018,0.007 0.097,0.038 0.151,0.058 0.403,0.389 0.219,0.117 0.074,0.09 0.398,0.49 0.053,0.185 0.008,0.027 h 10e-4 l 0.007,0.034 0.007,0.027 0.135,0.116 0.021,0.029 0.014,0.019 0.011,0.025 0.043,0.091 0.226,0.117 0.554,-0.029 0.032,0.007 0.09,0.018 0.055,0.009 0.098,0.063 0.107,0.067 0.041,-0.014 0.036,-0.013 0.163,-0.062 0.203,-0.029 0.166,-0.025 0.067,-0.035 0.035,-0.019 0.342,-0.068 0.028,-0.019 0.204,-0.132 0.342,0.069 0.24,0.047 0.252,0.042 0.438,0.075 0.027,0.041 0.028,0.204 0.077,0.129 0.005,0.007 0.045,0.018 0.034,0.012 0.051,0.018 0.128,0.048 0.09,0.034 0.13,0.014 0.164,-0.034 0.028,0.034 v 0.048 l -0.023,0.019 -0.032,0.029 -0.097,0.034 -0.06,0.021 -0.486,0.628 -0.027,0.092 -0.034,0.112 0.008,0.043 0.012,0.061 0.13,0.211 0.091,0.256 0.025,0.072 0.002,0.002 0.033,0.032 0.12,0.025 0.051,0.009 0.031,-0.004 0.036,-0.004 0.083,-0.012 0.011,0.029 0.009,0.026 -0.127,0.155 -0.05,0.063 -0.006,0.02 -0.015,0.049 0.185,0.423 0.123,0.164 v 0.047 h -0.137 l -0.131,-0.096 -0.129,-0.095 -0.088,-0.023 -0.043,-0.012 -0.046,-0.013 -0.144,0.014 -0.065,0.017 -0.161,0.044 -0.031,0.032 -0.013,0.013 -0.044,0.044 0.011,0.113 0.016,0.154 0.157,0.26 0.041,0.068 0.192,0.082 0.068,0.082 0.078,0.285 0.059,0.213 0.189,0.385 0.002,0.005 -0.011,0.036 -0.023,0.08 -0.014,0.348 0.052,0.185 0.01,0.034 0.008,0.013 0.128,0.178 0.037,-0.002 0.155,-0.012 0.033,0.067 0.042,0.083 0.082,0.247 -0.004,0.128 -0.003,0.111 0.096,0.109 0.232,0.123 -0.013,0.028 -0.082,0.176 v 0.369 l -0.024,0.025 -0.044,0.048 -0.035,0.037 -0.015,0.034 -0.04,0.096 -0.016,0.105 -0.011,0.072 0.034,0.888 0.185,0.683 0.13,0.075 0.143,0.037 0.205,0.052 0.096,0.055 0.469,0.266 0.037,0.021 h 0.13 l 0.07,-0.017 0.048,-0.012 0.079,-0.019 0.208,-0.084 0.354,-0.142 0.183,-0.046 0.011,-0.003 0.188,-0.046 0.452,-0.178 0.009,-0.009 0.126,-0.114 0.069,-0.129 -0.006,-0.06 -0.015,-0.132 0.063,-0.08 0.034,-0.044 0.047,-0.06 0.048,-0.062 0.164,-0.041 0.043,0.009 0.06,0.012 0.143,-0.116 h 0.13 l 0.083,0.082 0.177,0.054 0.104,0.06 0.025,0.016 0.137,0.348 0.016,0.017 0.059,0.065 0.499,0.211 0.04,0.004 0.193,0.017 v 10e-4 l 0.006,0.006 0.13,0.15 0.066,0.052 0.098,0.078 0.037,0.004 0.189,0.016 0.115,0.008 0.097,0.006 0.079,0.153 0.044,0.086 0.079,0.054 0.112,0.076 0.096,-0.004 0.068,-0.003 0.117,-0.082 0.212,0.055 0.232,0.014 0.037,0.02 0.002,10e-4 0.05,0.026 0.044,0.044 0.017,0.018 0.052,0.166 0.003,0.012 -0.137,0.265 -0.048,0.226 0.014,0.075 0.048,0.027 0.226,-0.041 0.076,0.016 0.088,0.019 h 0.006 l 0.06,0.011 0.022,0.004 0.096,0.019 0.233,-0.069 0.075,0.164 -0.034,0.178 -0.014,0.089 -0.096,0.109 v 0.184 l 0.113,0.009 0.079,0.005 0.035,-0.038 0.055,-0.06 0.06,-0.065 0.157,-0.056 0.114,0.033 0.009,0.003 0.089,0.025 0.026,0.052 0.043,0.085 0.047,0.04 0.028,0.022 0.041,-0.003 0.054,-0.004 0.122,-0.078 0.111,-0.072 0.039,0.019 0.077,0.035 0.109,0.099 0.096,0.086 0.065,0.017 0.004,0.001 0.061,0.017 0.144,0.075 0.232,0.177 0.28,0.287 0.204,0.164 h 0.001 l 0.081,0.063 0.076,0.06 0.091,0.036 0.225,0.091 0.245,0.099 0.274,0.069 0.046,0.013 h 0.001 l 0.369,0.143 0.157,0.02 h 0.137 l 0.103,-0.031 0.076,-0.022 0.027,-0.008 0.088,-0.082 0.198,-0.017 0.116,-0.01 0.574,-0.116 0.335,-0.212 0.417,-0.096 0.171,-0.198 0.055,-0.164 0.054,-0.055 0.144,-0.048 0.097,0.06 0.115,0.07 0.015,0.001 0.067,0.006 h 0.007 l 0.081,-0.025 0.069,-0.023 0.315,0.171 0.033,0.067 0.055,0.118 0.283,-0.082 0.333,-0.096 0.125,-0.012 0.087,-0.009 0.255,-0.092 0.182,-0.065 0.424,-0.041 0.396,-0.144 0.011,-0.037 0.024,-0.086 0.162,-0.015 0.118,-0.011 0.065,-0.077 0.024,-0.026 0.102,-0.055 0.78,-0.074 0.163,0.051 0.137,0.044 0.097,0.055 0.19,0.108 0.042,0.049 0.006,0.007 10e-4,0.03 0.006,0.127 0.212,0.075 0.09,-0.025 0.3,-0.085 0.104,-0.066 0.121,-0.076 0.023,-0.044 0.093,-0.176 0.372,-0.245 0.011,-0.007 0.294,-0.253 0.05,-0.025 0.298,-0.153 0.254,-0.075 0.151,-0.069 0.087,-0.04 0.29,-0.317 L -7.579,4.55 -7.521,4.465 -7.389,4.276 -7.014,4.011 -6.965,3.976 -6.921,3.923 -6.78,3.75 -6.754,3.735 -6.587,3.641 -6.479,3.579 -6.337,3.53 -6.165,3.47 -6.044,3.397 -5.994,3.368 -5.988,3.36 -5.951,3.307 -5.946,3.3 -5.945,3.256 -5.943,3.206 -5.939,3.033 -6.124,2.726 -6.2,2.226 -6.213,2.146 -6.09,2.057 -6.028,1.94 -5.987,1.605 V 1.462 l 0.023,-0.09 0.025,-0.094 V 1.277 l 0.232,-0.082 0.095,-0.089 0.014,-0.012 0.014,-0.075 0.079,-0.067 0.051,-0.044 0.184,-0.224 0.397,-0.806 v -0.001 l 0.273,-0.014 0.062,0.021 0.123,0.041 0.309,0.213 0.197,0.135 0.178,0.062 0.06,0.003 0.069,0.004 0.376,-0.185 0.329,-0.416 0.15,-0.096 0.042,0.004 0.088,0.009 0.054,0.041 -0.064,0.127 -0.003,0.06 0.004,0.002 0.036,0.016 0.014,0.007 0.085,-0.019 0.1,-0.023 0.014,0.005 0.197,0.072 0.028,-0.044 0.054,-0.046 -0.087,-0.111 -0.068,-0.087 0.071,-0.153 0.073,0.006 0.237,0.021 0.117,0.12 0.033,0.294 0.087,0.002 0.031,-0.01 0.074,-0.026 0.104,-0.137 0.155,-0.068 0.26,-0.046 0.002,0.001 0.094,0.01 0.082,-0.245 0.055,-0.021 0.159,0.041 0.149,0.116 0.266,0.348 0.116,-0.045 0.074,-0.03 0.007,0.073 0.002,0.028 -0.008,-0.091 0.011,-0.006 0.043,-0.009 0.021,-0.005 0.068,-0.02 0.063,-0.022 0.067,-0.019 0.017,-0.004 0.023,-0.004 0.031,-0.019 0.028,-0.017 0.006,-0.004 0.043,-0.018 0.04,-0.003 h 0.053 l 0.054,0.003 0.027,0.002 0.014,0.001 L 0.618,-0.299 0.653,-0.301 0.677,-0.304 0.701,-0.307 0.765,-0.34 0.816,-0.397 0.861,-0.447 0.882,-0.471 0.888,-0.478 0.921,-0.521 0.959,-0.58 0.976,-0.612 0.988,-0.636 0.997,-0.652 1.011,-0.68 1.023,-0.696 1.024,-0.697 1.029,-0.7 1.044,-0.707 1.082,-0.715 h 0.029 0.028 l 0.008,-0.001 0.01,-0.003 0.006,-0.003 0.009,-0.006 0.016,-0.003 0.026,0.009 0.027,0.026 0.029,0.032 0.028,0.096 0.017,0.075 0.003,0.023 10e-4,0.016 0.002,0.008 0.004,0.018 0.007,0.023 0.006,0.023 0.007,0.016 0.009,0.021 0.01,0.054 0.013,0.132 0.019,0.124 L 1.43,0.062 1.465,0.151 1.51,0.267 1.568,0.374 1.6,0.431 1.614,0.453 1.637,0.487 1.763,0.668 1.846,0.786 1.929,0.897 1.957,0.944 1.965,0.957 1.98,1.009 1.99,1.092 1.974,1.183 1.937,1.261 1.904,1.329 1.897,1.346 1.841,1.492 1.793,1.66 1.787,1.684 1.76,1.837 1.758,2.064 1.794,2.247 1.873,2.426 1.932,2.531 1.951,2.566 2.049,2.689 2.076,2.713 2.109,2.742 2.15,2.77 2.156,2.773 2.157,2.774 2.188,2.801 2.218,2.834 2.234,2.863 2.238,2.897 2.227,2.929 2.197,2.961 2.183,2.978 2.148,3.018 2.074,3.107 2.028,3.193 1.997,3.251 1.96,3.338 1.937,3.393 1.914,3.544 1.908,3.681 1.925,3.914 1.931,4.02 1.938,4.146 1.949,4.208 1.956,4.246 1.957,4.268 V 4.269 L 1.96,4.298 1.959,4.312 1.954,4.315 1.945,4.321 H 1.927 L 1.92,4.324 1.908,4.329 1.899,4.337 1.895,4.342 1.881,4.358 1.871,4.37 V 4.371 L 1.861,4.372 1.85,4.368 1.849,4.355 V 4.354 L 1.851,4.35 1.855,4.338 1.865,4.325 1.87,4.316 1.879,4.304 1.884,4.297 1.894,4.277 1.897,4.254 1.895,4.221 V 4.218 L 1.886,4.206 1.867,4.179 1.832,4.146 1.806,4.124 1.788,4.11 1.76,4.105 H 1.758 L 1.728,4.109 1.704,4.138 1.702,4.14 1.699,4.146 1.687,4.173 1.682,4.194 1.681,4.199 1.667,4.216 1.646,4.221 1.641,4.222 1.622,4.224 1.604,4.226 1.564,4.229 H 1.55 L 1.535,4.23 1.516,4.244 1.505,4.257 1.497,4.267 1.491,4.282 1.481,4.311 1.473,4.333 1.472,4.334 1.462,4.35 1.431,4.356 1.4,4.357 1.396,4.358 1.378,4.36 1.354,4.372 1.353,4.377 1.346,4.39 1.345,4.406 1.344,4.41 1.346,4.415 1.35,4.437 1.363,4.461 1.371,4.474 1.377,4.484 V 4.505 L 1.363,4.528 1.344,4.546 1.33,4.559 H 1.32 L 1.315,4.554 1.309,4.538 1.306,4.531 1.291,4.504 1.272,4.477 1.266,4.467 1.261,4.464 1.237,4.448 1.202,4.444 1.185,4.442 1.166,4.45 1.133,4.465 1.121,4.477 1.108,4.488 1.1,4.508 1.098,4.534 1.099,4.549 V 4.565 L 1.104,4.587 V 4.605 4.618 L 1.1,4.626 1.092,4.632 H 1.078 L 1.075,4.63 1.062,4.618 V 4.6 L 1.056,4.585 1.042,4.582 1.029,4.58 1.017,4.585 1.012,4.586 0.989,4.61 0.963,4.64 0.936,4.66 0.904,4.678 0.894,4.68 0.866,4.684 H 0.848 V 4.689 L 0.846,4.696 0.861,4.697 H 0.883 L 0.907,4.693 0.937,4.681 0.966,4.664 0.977,4.655 0.983,4.649 0.989,4.643 0.991,4.641 0.998,4.631 1.006,4.619 1.008,4.618 1.013,4.617 1.028,4.621 1.041,4.637 1.055,4.654 1.074,4.662 1.099,4.66 1.106,4.655 1.114,4.65 1.127,4.63 1.125,4.604 1.122,4.579 V 4.571 4.566 L 1.123,4.534 1.124,4.532 1.13,4.512 1.134,4.508 1.143,4.497 1.158,4.482 1.175,4.474 1.183,4.473 1.195,4.471 1.2,4.472 1.22,4.473 1.238,4.48 1.243,4.486 1.252,4.497 1.268,4.525 1.281,4.553 1.283,4.559 1.291,4.572 1.3,4.586 1.308,4.59 1.311,4.591 H 1.325 L 1.348,4.586 1.359,4.577 1.371,4.566 1.383,4.556 1.397,4.538 1.404,4.521 1.403,4.508 1.402,4.502 1.401,4.497 1.399,4.479 1.386,4.445 1.38,4.431 1.376,4.422 V 4.419 L 1.377,4.414 1.392,4.4 1.395,4.398 1.411,4.389 1.419,4.388 1.429,4.386 H 1.44 L 1.451,4.385 1.46,4.382 1.469,4.377 1.481,4.363 1.482,4.361 1.495,4.345 1.507,4.321 1.515,4.295 1.516,4.292 1.523,4.276 1.534,4.271 1.536,4.27 H 1.542 L 1.553,4.269 1.569,4.273 1.574,4.275 1.596,4.292 H 1.601 L 1.612,4.293 1.625,4.289 1.628,4.288 1.677,4.254 1.703,4.22 1.722,4.187 1.723,4.183 1.728,4.17 1.739,4.151 1.747,4.146 1.758,4.137 1.775,4.138 1.792,4.154 1.798,4.163 1.811,4.181 1.815,4.197 1.821,4.214 1.82,4.229 V 4.246 L 1.817,4.28 1.818,4.296 1.819,4.312 1.82,4.327 1.822,4.348 1.824,4.39 1.821,4.401 1.814,4.404 1.807,4.406 1.788,4.403 1.787,4.398 V 4.392 4.379 L 1.776,4.373 1.774,4.371 1.757,4.388 1.761,4.4 1.763,4.408 1.78,4.418 1.784,4.42 1.803,4.432 1.816,4.439 1.822,4.442 1.828,4.451 1.833,4.461 1.837,4.463 1.844,4.468 1.853,4.467 1.855,4.453 V 4.436 L 1.857,4.417 1.868,4.396 1.884,4.385 1.892,4.384 1.896,4.383 1.91,4.398 1.911,4.406 1.912,4.413 1.915,4.42 1.918,4.425 1.927,4.424 1.929,4.404 1.93,4.396 V 4.388 4.37 L 1.932,4.365 1.933,4.36 1.944,4.358 1.96,4.372 1.968,4.398 1.969,4.403 1.965,4.44 v 0.011 0.017 l 0.01,0.041 0.011,0.068 0.001,0.005 0.005,0.022 0.022,0.091 0.022,0.109 0.014,0.068 0.008,0.047 0.01,0.065 0.005,0.044 0.009,0.076 0.009,0.063 0.016,0.115 0.006,0.07 0.002,0.024 0.006,0.119 0.018,0.116 0.006,0.041 0.01,0.062 L 2.18,5.854 2.188,5.91 2.205,6.006 2.21,6.028 2.228,6.115 2.23,6.167 2.232,6.214 2.242,6.322 2.259,6.449 2.271,6.511 2.275,6.533 2.285,6.576 2.289,6.65 V 6.667 L 2.287,6.688 2.282,6.709 2.268,6.725 2.254,6.73 H 2.237 L 2.221,6.74 2.21,6.763 2.208,6.797 V 6.798 6.831 L 2.209,6.84 2.211,6.854 V 6.877 L 2.203,6.89 2.2,6.895 2.192,6.903 2.186,6.911 2.179,6.919 2.171,6.928 2.17,6.939 2.179,6.946 2.183,6.94 2.188,6.93 2.207,6.909 2.221,6.896 2.227,6.877 2.229,6.858 V 6.836 6.809 6.786 L 2.23,6.774 2.231,6.763 2.233,6.755 2.234,6.751 2.249,6.743 2.267,6.733 2.268,6.732 2.281,6.73 2.285,6.735 2.29,6.742 2.297,6.783 2.298,6.794 2.308,6.87 2.313,6.901 2.323,6.947 2.23,7.025 2.323,6.947 2.326,6.962 2.333,7.001 2.343,7.059 2.354,7.136 2.358,7.161 2.362,7.176 2.391,7.279 2.433,7.419 V 7.42 l 0.008,0.019 0.004,0.017 0.003,0.01 0.02,0.038 0.018,0.037 0.002,0.005 10e-4,0.002 V 7.549 L 2.494,7.556 2.503,7.574 H 2.504 L 2.502,7.587 2.501,7.596 2.504,7.629 2.511,7.652 2.518,7.671 2.52,7.678 2.517,7.713 2.514,7.724 2.51,7.745 2.507,7.768 2.506,7.773 V 7.776 L 2.505,7.798 2.499,7.81 2.491,7.817 2.472,7.83 2.462,7.837 2.458,7.84 2.442,7.855 2.428,7.882 2.425,7.887 2.421,7.93 V 8.038 8.04 L 2.442,8.146 2.45,8.172 V 8.188 L 2.449,8.191 2.447,8.203 2.446,8.227 2.451,8.27 2.471,8.354 2.494,8.427 2.5,8.438 2.502,8.45 2.505,8.515 2.507,8.547 2.506,8.593 2.505,8.66 2.51,8.711 2.514,8.724 2.515,8.727 2.517,8.757 2.518,8.761 2.53,8.793 2.541,8.84 l 10e-4,0.004 0.013,0.06 0.016,0.07 0.006,0.025 0.008,0.03 0.021,0.069 0.021,0.048 0.01,0.025 0.009,0.017 0.009,0.019 v 0.016 l -0.01,0.016 10e-4,0.033 v 0.04 L 2.651,9.361 V 9.383 L 2.652,9.403 2.646,9.413 2.641,9.426 2.629,9.434 H 2.623 L 2.612,9.433 2.597,9.427 2.575,9.429 2.563,9.436 2.556,9.44 2.541,9.466 2.539,9.477 2.532,9.508 2.53,9.522 2.529,9.536 2.526,9.559 2.523,9.584 2.522,9.595 2.52,9.622 2.521,9.641 V 9.659 L 2.523,9.696 2.522,9.702 2.52,9.714 2.503,9.724 2.493,9.718 2.481,9.704 2.468,9.702 2.461,9.701 2.449,9.703 2.438,9.704 2.43,9.712 2.414,9.727 2.402,9.739 2.396,9.746 2.393,9.762 2.388,9.785 2.387,9.794 2.383,9.828 2.381,9.866 2.366,9.877 H 2.356 L 2.345,9.888 2.344,9.889 2.336,9.908 2.333,9.916 2.334,9.948 2.333,9.992 2.334,10.026 v 0.025 l -0.016,0.018 -0.005,0.012 -0.007,0.013 0.009,0.035 v 0.001 l 0.018,0.036 0.013,0.037 0.002,0.005 0.004,0.011 0.002,0.041 0.017,0.046 0.008,0.022 0.009,0.022 0.043,0.111 0.018,0.035 0.009,0.019 0.027,0.025 0.013,0.028 v 0.033 l -0.002,0.012 -0.004,0.025 -0.002,0.014 -0.007,0.036 -0.02,0.034 -0.021,0.027 -0.019,0.023 -0.025,0.025 -0.02,0.032 -0.015,0.049 0.003,0.059 0.003,0.008 0.008,0.031 v 0.045 l -0.005,0.046 -0.006,0.074 0.003,0.025 0.006,0.041 0.015,0.052 0.013,0.048 0.023,0.063 0.038,0.187 v 0.002 l -0.003,0.082 v 0.066 l -0.006,0.044 0.002,0.017 v 10e-4 L 2.421,11.836 2.404,11.832 2.396,11.83 H 2.39 L 2.388,11.831 2.38,11.836 2.37,11.849 2.362,11.859 2.356,11.883 2.353,11.897 2.335,11.945 2.33,11.959 2.32,11.99 2.319,11.994 2.315,12.007 2.311,12.016 H 2.299 L 2.293,12.007 2.297,11.99 v -0.011 l -0.01,-0.004 -0.002,0.012 v 0.004 l 0.003,0.022 v 10e-4 l 0.002,0.015 v 0.014 l 10e-4,0.013 -10e-4,0.01 v 0.009 l -0.011,0.033 -0.014,0.05 -0.016,0.068 -0.016,0.08 -0.011,0.063 -0.002,0.01 -0.018,0.17 -0.005,0.114 v 0.025 l -0.002,0.048 -0.016,0.161 0.001,0.069 -0.002,0.066 v 0.003 l 0.002,0.016 0.005,0.035 -0.002,0.018 -0.02,0.009 -0.006,0.075 0.002,0.041 -0.002,0.067 0.022,0.179 0.05,0.202 0.009,0.045 0.005,0.028 v 0.008 l 0.001,0.014 -0.008,0.011 -0.014,0.004 -0.012,0.003 -0.004,0.018 10e-4,0.041 0.002,0.088 0.01,0.081 0.009,0.067 10e-4,0.108 10e-4,0.069 0.002,0.066 10e-4,0.149 0.003,0.058 10e-4,0.03 0.015,0.088 0.017,0.081 0.024,0.1 0.006,0.023 0.006,0.017 0.028,0.077 L 2.357,15 2.37,15.025 2.388,15.069 2.392,15.086 2.382,15.089 2.38,15.09 2.367,15.088 2.36,15.079 2.358,15.068 2.356,15.061 2.353,15.052 2.352,15.049 2.34,15.035 2.337,15.029 2.334,15.023 2.331,15.008 2.33,15.005 2.328,14.981 2.311,14.969 H 2.298 L 2.295,14.97 2.284,14.977 2.288,14.982 2.292,14.989 2.311,15 2.313,15.019 v 0.005 l 0.004,0.018 0.009,0.015 0.013,0.013 0.003,0.011 0.003,0.011 0.007,0.013 0.016,0.003 h 0.017 l 0.019,0.008 0.016,0.026 0.042,0.07 0.023,0.039 0.076,0.113 0.039,0.05 0.037,0.06 0.012,0.03 0.004,0.012 0.013,0.048 0.002,0.013 0.009,0.052 L 2.673,15.668 2.67,15.69 2.656,15.725 2.651,15.742 2.647,15.799 2.633,15.84 v 0.002 l -0.007,0.032 -0.007,0.031 -0.001,0.037 -0.002,0.043 -0.004,0.082 v 0.058 l 0.002,0.057 0.003,0.137 0.003,0.067 -0.002,0.027 -0.002,0.01 -0.012,0.041 -0.003,0.038 v 0.003 0.005 l 0.005,0.1 0.006,0.083 0.002,0.072 -0.002,0.151 0.023,0.101 0.042,0.098 0.006,0.016 0.03,0.084 0.021,0.071 0.008,0.026 0.005,0.016 v 0.004 L 2.744,17.359 2.724,17.402 2.706,17.427 2.688,17.451 2.66,17.491 2.63,17.539 2.619,17.588 2.613,17.609 2.602,17.649 2.586,17.688 2.554,17.727 2.5,17.755 2.49,17.757 2.445,17.766 H 2.382 L 2.356,17.765 2.317,17.764 2.251,17.769 H 2.224 2.187 L 2.136,17.773 H 2.104 L 2.077,17.772 2.068,17.771 H 2.029 L 1.928,17.814 1.874,17.86 1.798,17.927 1.733,17.999 1.691,18.047 1.609,18.146 1.518,18.294 1.504,18.315 1.427,18.511 1.375,18.7 l -0.003,0.194 0.004,0.022 0.026,0.144 0.031,0.124 0.004,0.016 0.009,0.036 0.01,0.036 0.005,0.04 -0.02,0.038 -0.023,0.024 -0.008,0.008 -0.018,0.017 -0.024,0.021 -0.123,0.083 -0.072,0.063 -0.081,0.072 -0.012,0.017 -0.095,0.135 -0.016,0.049 0.063,0.002 -0.129,0.501 0.017,0.068 0.036,0.144 0.035,0.089 0.012,0.03 0.047,0.082 0.012,0.06 v 0.041 0.043 l 0.002,0.027 0.003,0.052 -0.011,0.043 -0.026,0.059 -0.047,0.041 -0.074,0.047 -0.045,0.028 0.012,0.666 -0.178,0.749 c 0.007,0.011 0.014,0.021 0.021,0.032 0.043,0.052 0.085,0.104 0.127,0.157 0.031,0.032 0.062,0.062 0.092,0.095 0.027,0.022 0.053,0.045 0.079,0.068 0.012,0.01 0.024,0.019 0.036,0.029 0.007,0.015 0.014,0.029 0.021,0.042 10e-4,0.021 0.002,0.041 0.004,0.062 l 0.079,0.036 0.072,0.038 -0.004,0.271 0.057,0.332 z"
       style="fill:#ffce8d;fill-opacity:1;fill-rule:nonzero;stroke:none"
       id="path778" /></g><g
     id="g780"
     transform="matrix(0.65092093,0,0,-0.65092093,74.025111,53.826568)"
     clip-path="url(#clipPath5543)"><path
       d="m 0,0 v 20.711 c 0,0.595 -0.222,1.044 -0.664,1.347 -0.304,0.198 -0.455,0.437 -0.455,0.717 v 0.77 c 0,0.268 0.151,0.402 0.455,0.402 H 5.65 L 7.636,11.195 9.604,23.947 h 6.384 c 0.257,0 0.385,-0.122 0.385,-0.367 v -0.805 c 0,-0.268 -0.151,-0.507 -0.454,-0.717 -0.443,-0.315 -0.665,-0.764 -0.665,-1.347 L 15.254,0 c 0,-0.607 0.227,-1.062 0.683,-1.365 0.291,-0.198 0.436,-0.432 0.436,-0.699 v -0.788 c 0,-0.268 -0.151,-0.402 -0.454,-0.402 h -5.266 c -0.245,0 -0.367,0.122 -0.367,0.367 v 0.824 c 0,0.255 0.145,0.489 0.435,0.699 0.452,0.314 0.678,0.769 0.678,1.365 V 21.21 L 7.627,-3.254 H 6.232 L 2.508,21.21 V 0.001 c 0,-0.607 0.22,-1.062 0.661,-1.365 0.302,-0.198 0.452,-0.432 0.452,-0.699 v -0.789 c 0,-0.268 -0.151,-0.402 -0.455,-0.402 h -3.9 c -0.257,0 -0.385,0.122 -0.385,0.367 v 0.823 c 0,0.255 0.151,0.49 0.455,0.699 C -0.222,-1.05 0,-0.596 0,0"
       style="fill:#000000;fill-opacity:1;fill-rule:nonzero;stroke:none"
       id="path782" /></g><g
     id="g784"
     transform="matrix(0.65092093,0,0,-0.65092093,93.519021,55.944593)"
     clip-path="url(#clipPath5537)"><path
       d="m 0,0 h -11.983 c -0.28,0 -0.419,0.14 -0.419,0.42 v 0.769 c 0,0.246 0.192,0.513 0.577,0.805 0.338,0.268 0.507,0.689 0.507,1.26 v 20.711 c 0,0.606 -0.216,1.061 -0.648,1.364 -0.291,0.198 -0.436,0.432 -0.436,0.7 v 0.839 c 0,0.222 0.139,0.333 0.419,0.333 h 8.991 c 0.164,0 0.472,0.018 0.928,0.053 0.408,0.035 0.664,0.053 0.769,0.053 0.385,0 0.577,-0.106 0.577,-0.316 v -5.142 c 0,-0.269 -0.026,-0.429 -0.079,-0.482 -0.052,-0.053 -0.201,-0.079 -0.445,-0.079 H -1.89 c -0.28,0 -0.437,0.164 -0.472,0.49 -0.128,0.91 -0.359,1.689 -0.691,2.335 -0.332,0.648 -1,0.972 -2.003,0.972 H -7.26 v -9.901 h 0.805 c 0.501,0 0.846,0.095 1.032,0.289 0.187,0.192 0.42,0.795 0.699,1.81 0.094,0.326 0.158,0.507 0.193,0.542 0.035,0.034 0.14,0.052 0.315,0.052 h 0.77 c 0.302,0 0.454,-0.146 0.454,-0.437 v -6.594 c 0,-0.281 -0.14,-0.42 -0.419,-0.42 h -0.805 c -0.175,0 -0.298,0.044 -0.368,0.131 -0.069,0.088 -0.163,0.358 -0.279,0.813 -0.21,0.828 -0.438,1.332 -0.683,1.513 -0.245,0.181 -0.583,0.271 -1.015,0.271 H -7.26 V 2.081 h 2.362 c 0.875,0 1.48,0.207 1.819,0.621 0.338,0.414 0.758,1.549 1.26,3.402 0.116,0.42 0.326,0.63 0.63,0.63 h 0.752 C -0.146,6.734 0,6.589 0,6.297 Z"
       style="fill:#000000;fill-opacity:1;fill-rule:nonzero;stroke:none"
       id="path786" /></g><g
     id="g788"
     transform="matrix(0.65092093,0,0,-0.65092093,94.839931,53.826568)"
     clip-path="url(#clipPath5531)"><path
       d="m 0,0 v 20.711 c 0,0.595 -0.222,1.044 -0.665,1.347 -0.304,0.198 -0.455,0.437 -0.455,0.717 v 0.77 c 0,0.268 0.151,0.402 0.455,0.402 H 5.649 L 7.635,11.195 9.604,23.947 h 6.384 c 0.256,0 0.385,-0.122 0.385,-0.367 v -0.805 c 0,-0.268 -0.152,-0.507 -0.455,-0.717 -0.443,-0.315 -0.665,-0.764 -0.665,-1.347 V 0 c 0,-0.607 0.227,-1.062 0.683,-1.365 0.291,-0.198 0.437,-0.432 0.437,-0.699 v -0.788 c 0,-0.268 -0.152,-0.402 -0.455,-0.402 h -5.266 c -0.244,0 -0.367,0.122 -0.367,0.367 v 0.824 c 0,0.255 0.145,0.489 0.435,0.699 0.453,0.314 0.678,0.769 0.678,1.365 V 21.21 L 7.627,-3.254 H 6.231 L 2.507,21.21 V 0.001 c 0,-0.607 0.221,-1.062 0.661,-1.365 C 3.47,-1.562 3.62,-1.796 3.62,-2.063 v -0.789 c 0,-0.268 -0.151,-0.402 -0.454,-0.402 h -3.901 c -0.256,0 -0.385,0.122 -0.385,0.367 v 0.823 c 0,0.255 0.151,0.49 0.455,0.699 C -0.222,-1.05 0,-0.596 0,0"
       style="fill:#000000;fill-opacity:1;fill-rule:nonzero;stroke:none"
       id="path790" /></g><g
     id="g792"
     transform="matrix(0.65092093,0,0,-0.65092093,111.20193,34.048469)"
     clip-path="url(#clipPath5525)"><path
       d="M 0,0 H 3.971 L -0.77,-5.388 h -1.714 z m -0.088,-32.1 c 0.525,0 1.006,0.338 1.443,1.014 0.438,0.676 0.749,2.529 0.936,5.559 0.187,3.03 0.28,5.809 0.28,8.339 0,2.283 -0.139,4.162 -0.42,5.636 -0.28,1.474 -0.583,2.424 -0.909,2.85 -0.327,0.425 -0.747,0.638 -1.26,0.638 -0.431,0 -0.819,-0.164 -1.163,-0.49 -0.344,-0.326 -0.612,-0.912 -0.804,-1.757 -0.193,-0.845 -0.362,-2.497 -0.507,-4.956 -0.147,-2.459 -0.219,-5.01 -0.219,-7.656 0,-3.298 0.215,-5.651 0.647,-7.061 0.431,-1.411 1.09,-2.116 1.976,-2.116 m 0.192,-1.888 c -2.436,0 -4.253,1.223 -5.448,3.671 -1.196,2.447 -1.793,5.833 -1.793,10.157 0,4.323 0.603,7.753 1.81,10.287 1.207,2.535 2.959,3.803 5.257,3.803 2.157,0 3.869,-1.168 5.134,-3.505 1.265,-2.337 1.898,-5.796 1.898,-10.376 0,-4.673 -0.627,-8.182 -1.88,-10.524 -1.254,-2.342 -2.913,-3.513 -4.978,-3.513"
       style="fill:#000000;fill-opacity:1;fill-rule:nonzero;stroke:none"
       id="path794" /></g><g
     id="g796"
     transform="matrix(0.65092093,0,0,-0.65092093,120.1629,39.616242)"
     clip-path="url(#clipPath5519)"><path
       d="m 0,0 v -10.269 c 1.26,0 2.187,0.397 2.781,1.19 0.595,0.793 0.893,2.204 0.893,4.233 0,1.983 -0.301,3.285 -0.902,3.909 C 2.172,-0.312 1.248,0 0,0 m 0,-12.351 v -9.48 c 0,-0.607 0.222,-1.062 0.665,-1.365 0.303,-0.199 0.455,-0.432 0.455,-0.7 v -0.787 c 0,-0.268 -0.152,-0.402 -0.455,-0.402 h -5.458 c -0.257,0 -0.385,0.122 -0.385,0.367 v 0.822 c 0,0.256 0.152,0.491 0.455,0.7 0.443,0.315 0.664,0.769 0.664,1.365 V -1.12 c 0,0.595 -0.221,1.044 -0.664,1.347 -0.303,0.198 -0.455,0.437 -0.455,0.717 v 0.77 c 0,0.268 0.152,0.402 0.455,0.402 h 4.583 c 2.589,0 4.56,-0.583 5.912,-1.749 1.353,-1.167 2.03,-2.851 2.03,-5.055 0,-3.511 -1.627,-5.779 -4.881,-6.805 0.957,-0.467 1.683,-0.994 2.178,-1.583 0.496,-0.589 0.878,-1.455 1.146,-2.598 l 1.276,-5.545 c 0.164,-0.712 0.325,-1.193 0.482,-1.443 0.157,-0.251 0.417,-0.487 0.778,-0.709 0.105,-0.069 0.157,-0.181 0.157,-0.332 V -24.7 c 0,-0.257 -0.127,-0.385 -0.382,-0.385 H 5.068 c -0.338,0 -0.551,0.188 -0.645,0.564 l -2.394,9.617 c -0.257,1.06 -0.54,1.749 -0.848,2.064 -0.31,0.315 -0.702,0.478 -1.181,0.489"
       style="fill:#000000;fill-opacity:1;fill-rule:nonzero;stroke:none"
       id="path798" /></g><g
     id="g800"
     transform="matrix(0.65092093,0,0,-0.65092093,129.86384,53.826568)"
     clip-path="url(#clipPath5513)"><path
       d="M 0,0 C 0,-0.607 0.222,-1.062 0.665,-1.365 0.968,-1.563 1.12,-1.797 1.12,-2.064 v -0.788 c 0,-0.268 -0.152,-0.402 -0.455,-0.402 h -5.458 c -0.256,0 -0.385,0.122 -0.385,0.367 v 0.823 c 0,0.255 0.152,0.49 0.455,0.699 0.444,0.315 0.665,0.769 0.665,1.365 v 20.711 c 0,0.595 -0.221,1.044 -0.665,1.347 -0.303,0.198 -0.455,0.437 -0.455,0.717 v 0.77 c 0,0.268 0.152,0.402 0.455,0.402 h 5.458 c 0.256,0 0.385,-0.122 0.385,-0.367 V 22.775 C 1.12,22.507 0.968,22.268 0.665,22.058 0.222,21.743 0,21.294 0,20.711 Z"
       style="fill:#000000;fill-opacity:1;fill-rule:nonzero;stroke:none"
       id="path802" /></g><g
     id="g804"
     transform="matrix(0.65092093,0,0,-0.65092093,135.47165,44.137088)"
     clip-path="url(#clipPath5507)"><path
       d="m 0,0 -1.829,-8.974 h 3.623 z m -1.205,5.619 -0.164,1.188 c -0.055,0.384 -0.082,0.6 -0.082,0.647 0,0.116 0.087,0.215 0.263,0.297 l 2.963,1.38 c 0.046,0.024 0.099,0.036 0.158,0.036 0.163,0 0.268,-0.105 0.315,-0.314 l 4.741,-23.721 c 0.081,-0.432 0.184,-0.741 0.306,-0.928 0.122,-0.186 0.358,-0.385 0.708,-0.595 0.268,-0.163 0.402,-0.349 0.402,-0.559 v -0.77 c 0,-0.28 -0.11,-0.42 -0.332,-0.42 H 2.23 c -0.314,0 -0.471,0.14 -0.471,0.42 v 0.771 c 0,0.267 0.187,0.495 0.562,0.681 0.457,0.246 0.686,0.579 0.686,0.998 0,0.117 -0.012,0.25 -0.034,0.403 l -0.732,3.654 H -2.33 l -0.732,-3.517 c -0.035,-0.152 -0.052,-0.263 -0.052,-0.333 0,-0.349 0.26,-0.734 0.782,-1.153 0.337,-0.28 0.505,-0.525 0.505,-0.735 v -0.769 c 0,-0.28 -0.17,-0.42 -0.508,-0.42 H -5.99 c -0.409,0 -0.614,0.14 -0.614,0.42 v 0.909 c 0,0.246 0.129,0.444 0.386,0.595 0.478,0.292 0.793,0.787 0.945,1.487 z"
       style="fill:#000000;fill-opacity:1;fill-rule:nonzero;stroke:none"
       id="path806" /></g><g
     id="g808"
     transform="matrix(0.65092093,0,0,-0.65092093,148.93628,39.593989)"
     clip-path="url(#clipPath5501)"><path
       d="m 0,0 v -23.09 c 1.166,0 2.07,0.279 2.712,0.84 0.641,0.56 1.107,1.784 1.398,3.673 0.292,1.89 0.438,4.058 0.438,6.508 0,2.646 -0.111,4.746 -0.332,6.297 -0.222,1.55 -0.498,2.72 -0.831,3.507 -0.332,0.787 -0.743,1.344 -1.234,1.67 C 1.662,-0.269 0.944,-0.069 0,0 m -5.125,0.91 v 0.909 c 0,0.175 0.134,0.263 0.402,0.263 h 4.548 c 2.566,0 4.729,-1.047 6.489,-3.14 1.762,-2.093 2.642,-5.49 2.642,-10.19 0,-2.425 -0.265,-4.743 -0.796,-6.953 -0.53,-2.21 -1.382,-3.915 -2.554,-5.116 -1.171,-1.202 -3.146,-1.802 -5.92,-1.802 h -4.497 c -0.21,0 -0.314,0.098 -0.314,0.297 v 0.892 c 0,0.256 0.146,0.491 0.438,0.7 0.43,0.327 0.646,0.782 0.646,1.365 v 20.711 c 0,0.594 -0.192,1.026 -0.577,1.295 -0.338,0.244 -0.507,0.501 -0.507,0.769"
       style="fill:#000000;fill-opacity:1;fill-rule:nonzero;stroke:none"
       id="path810" /></g><g
     id="g812"
     transform="matrix(0.65092093,0,0,-0.65092093,160.72088,54.942761)"
     clip-path="url(#clipPath5495)"><path
       d="m 0,0 c 0.525,0 1.006,0.338 1.443,1.014 0.438,0.675 0.749,2.529 0.936,5.558 0.186,3.031 0.28,5.81 0.28,8.339 0,2.283 -0.139,4.162 -0.42,5.637 -0.28,1.473 -0.583,2.424 -0.909,2.849 -0.327,0.425 -0.747,0.638 -1.26,0.638 -0.431,0 -0.819,-0.163 -1.163,-0.489 -0.344,-0.326 -0.612,-0.912 -0.804,-1.757 -0.193,-0.846 -0.362,-2.497 -0.507,-4.956 -0.147,-2.459 -0.219,-5.011 -0.219,-7.656 0,-3.298 0.215,-5.652 0.646,-7.062 C -1.545,0.705 -0.886,0 0,0 m 0.192,-1.889 c -2.437,0 -4.254,1.224 -5.448,3.671 -1.196,2.447 -1.793,5.833 -1.793,10.157 0,4.324 0.603,7.753 1.81,10.288 1.207,2.535 2.959,3.802 5.257,3.802 2.157,0 3.869,-1.168 5.134,-3.505 C 6.417,20.187 7.05,16.729 7.05,12.148 7.05,7.476 6.423,3.967 5.17,1.625 3.916,-0.718 2.257,-1.889 0.192,-1.889"
       style="fill:#000000;fill-opacity:1;fill-rule:nonzero;stroke:none"
       id="path814" /></g><g
     id="g816"
     transform="matrix(0.65092093,0,0,-0.65092093,76.271571,73.389801)"
     clip-path="url(#clipPath5489)"><path
       d="m 0,0 v 19.667 c 0,0.609 -0.233,1.07 -0.7,1.382 -0.299,0.202 -0.448,0.448 -0.448,0.735 v 0.789 c 0,0.276 0.149,0.413 0.448,0.413 h 5.617 c 0.251,0 0.376,-0.126 0.376,-0.377 v -0.825 c 0,-0.275 -0.149,-0.52 -0.448,-0.735 C 4.379,20.726 4.146,20.265 4.146,19.667 V 2.171 c 0,-2.249 -0.56,-4.037 -1.679,-5.365 -1.118,-1.328 -2.503,-1.993 -4.154,-1.993 -1.245,0 -2.231,0.324 -2.96,0.97 -0.731,0.646 -1.095,1.405 -1.095,2.279 0,0.574 0.197,1.061 0.593,1.462 0.394,0.401 0.908,0.601 1.543,0.601 0.513,0 0.935,-0.144 1.264,-0.431 0.329,-0.287 0.493,-0.657 0.493,-1.112 0,-0.191 -0.035,-0.448 -0.107,-0.771 -0.036,-0.168 -0.054,-0.305 -0.054,-0.413 0,-0.466 0.251,-0.7 0.754,-0.7 C -0.419,-3.302 0,-2.201 0,0"
       style="fill:#000000;fill-opacity:1;fill-rule:nonzero;stroke:none"
       id="path818" /></g><g
     id="g820"
     transform="matrix(0.65092093,0,0,-0.65092093,85.405421,75.56244)"
     clip-path="url(#clipPath5483)"><path
       d="m 0,0 c 0.538,0 1.032,0.347 1.48,1.04 0.449,0.693 0.769,2.594 0.96,5.702 0.192,3.108 0.288,5.959 0.288,8.553 0,2.343 -0.144,4.27 -0.431,5.783 C 2.01,22.59 1.698,23.564 1.364,24 c -0.335,0.437 -0.766,0.655 -1.292,0.655 -0.443,0 -0.841,-0.168 -1.193,-0.502 -0.354,-0.335 -0.628,-0.935 -0.826,-1.802 -0.198,-0.867 -0.37,-2.561 -0.52,-5.083 -0.15,-2.523 -0.224,-5.141 -0.224,-7.854 0,-3.383 0.22,-5.798 0.664,-7.244 C -1.585,0.724 -0.909,0 0,0 m 0.197,-1.937 c -2.5,0 -4.363,1.254 -5.59,3.765 -1.225,2.511 -1.838,5.984 -1.838,10.419 0,4.436 0.619,7.953 1.857,10.553 1.238,2.6 3.035,3.901 5.393,3.901 2.211,0 3.967,-1.199 5.265,-3.596 C 6.583,20.708 7.231,17.16 7.231,12.462 7.231,7.668 6.589,4.069 5.303,1.667 4.017,-0.736 2.315,-1.937 0.197,-1.937"
       style="fill:#000000;fill-opacity:1;fill-rule:nonzero;stroke:none"
       id="path822" /></g><g
     id="g824"
     transform="matrix(0.65092093,0,0,-0.65092093,94.656241,59.841194)"
     clip-path="url(#clipPath5477)"><path
       d="m 0,0 v -10.533 c 1.292,0 2.243,0.407 2.854,1.22 0.609,0.814 0.915,2.261 0.915,4.343 0,2.033 -0.309,3.37 -0.925,4.01 C 2.228,-0.319 1.28,0 0,0 m 0,-12.668 v -9.726 c 0,-0.622 0.228,-1.088 0.682,-1.399 0.311,-0.204 0.466,-0.443 0.466,-0.718 v -0.807 c 0,-0.276 -0.155,-0.413 -0.466,-0.413 h -5.599 c -0.263,0 -0.395,0.126 -0.395,0.377 v 0.843 c 0,0.263 0.156,0.502 0.467,0.718 0.454,0.322 0.682,0.789 0.682,1.399 v 21.247 c 0,0.609 -0.228,1.07 -0.682,1.381 -0.311,0.203 -0.467,0.449 -0.467,0.736 v 0.789 c 0,0.275 0.156,0.413 0.467,0.413 h 4.701 c 2.657,0 4.677,-0.599 6.066,-1.795 1.388,-1.196 2.081,-2.925 2.081,-5.186 0,-3.6 -1.669,-5.927 -5.006,-6.98 0.981,-0.479 1.726,-1.02 2.233,-1.624 0.509,-0.605 0.901,-1.492 1.176,-2.664 l 1.31,-5.689 c 0.167,-0.73 0.332,-1.223 0.493,-1.48 0.162,-0.258 0.428,-0.5 0.799,-0.727 0.108,-0.072 0.161,-0.185 0.161,-0.341 v -1.023 c 0,-0.263 -0.131,-0.394 -0.393,-0.394 H 5.199 c -0.346,0 -0.566,0.192 -0.662,0.578 l -2.456,9.865 c -0.263,1.089 -0.554,1.795 -0.87,2.117 C 0.895,-12.848 0.49,-12.68 0,-12.668"
       style="fill:#000000;fill-opacity:1;fill-rule:nonzero;stroke:none"
       id="path826" /></g><g
     id="g828"
     transform="matrix(0.65092093,0,0,-0.65092093,108.0535,68.259952)"
     clip-path="url(#clipPath5471)"><path
       d="m 0,0 v 11.778 c 0,0.612 -0.228,1.074 -0.682,1.385 -0.311,0.204 -0.466,0.45 -0.466,0.737 v 0.791 c 0,0.277 0.155,0.414 0.466,0.414 h 4.055 c 0.263,0 0.396,-0.126 0.396,-0.376 v -0.826 c 0,-0.275 -0.151,-0.52 -0.45,-0.735 -0.466,-0.323 -0.7,-0.784 -0.7,-1.382 V -12.35 c 0,-0.382 -0.174,-0.574 -0.521,-0.574 H 1.307 c -0.36,0 -0.612,0.192 -0.755,0.574 L -6.891,7.21 V -9.46 c 0,-0.622 0.23,-1.089 0.689,-1.399 0.306,-0.204 0.46,-0.444 0.46,-0.718 v -0.808 c 0,-0.275 -0.154,-0.413 -0.464,-0.413 h -4.008 c -0.261,0 -0.391,0.126 -0.391,0.377 v 0.844 c 0,0.263 0.155,0.502 0.466,0.718 0.454,0.322 0.682,0.789 0.682,1.399 v 21.246 c 0,0.61 -0.228,1.07 -0.682,1.382 -0.311,0.202 -0.466,0.448 -0.466,0.735 v 0.789 c 0,0.276 0.155,0.413 0.464,0.413 h 3.79 c 0.275,0 0.459,-0.033 0.555,-0.098 0.095,-0.067 0.191,-0.226 0.286,-0.478 z"
       style="fill:#000000;fill-opacity:1;fill-rule:nonzero;stroke:none"
       id="path830" /></g><g
     id="g832"
     transform="matrix(0.65092093,0,0,-0.65092093,115.34778,64.477711)"
     clip-path="url(#clipPath5465)"><path
       d="M 0,0 -1.877,-9.206 H 1.84 Z m -1.237,5.764 -0.168,1.218 c -0.057,0.394 -0.084,0.616 -0.084,0.664 0,0.119 0.089,0.22 0.269,0.304 l 3.04,1.416 c 0.048,0.025 0.102,0.036 0.161,0.036 0.168,0 0.277,-0.107 0.325,-0.321 l 4.862,-24.334 c 0.084,-0.442 0.189,-0.76 0.314,-0.951 0.126,-0.192 0.369,-0.395 0.727,-0.61 0.275,-0.167 0.413,-0.359 0.413,-0.574 v -0.79 c 0,-0.287 -0.114,-0.43 -0.341,-0.43 H 2.288 c -0.323,0 -0.484,0.143 -0.484,0.43 v 0.79 c 0,0.276 0.191,0.509 0.577,0.701 0.469,0.25 0.703,0.591 0.703,1.023 0,0.119 -0.012,0.257 -0.035,0.413 l -0.75,3.749 h -4.69 l -0.751,-3.609 c -0.035,-0.156 -0.053,-0.269 -0.053,-0.34 0,-0.36 0.267,-0.754 0.802,-1.185 0.345,-0.286 0.518,-0.538 0.518,-0.753 v -0.789 c 0,-0.287 -0.174,-0.43 -0.521,-0.43 h -3.75 c -0.418,0 -0.628,0.143 -0.628,0.43 v 0.934 c 0,0.251 0.131,0.454 0.395,0.609 0.49,0.299 0.814,0.808 0.969,1.526 z"
       style="fill:#000000;fill-opacity:1;fill-rule:nonzero;stroke:none"
       id="path834" /></g><g
     id="g836"
     transform="matrix(0.65092093,0,0,-0.65092093,122.29174,74.417667)"
     clip-path="url(#clipPath5459)"><path
       d="m 0,0 v 21.246 c 0,0.609 -0.228,1.07 -0.683,1.382 -0.31,0.202 -0.465,0.448 -0.465,0.735 v 0.789 c 0,0.276 0.155,0.413 0.465,0.413 h 5.599 c 0.264,0 0.395,-0.126 0.395,-0.377 v -0.825 c 0,-0.275 -0.156,-0.52 -0.466,-0.735 C 4.39,22.305 4.163,21.844 4.163,21.246 V -1.202 h 1.524 c 0.898,0 1.595,0.277 2.091,0.834 0.496,0.556 0.865,1.504 1.104,2.844 0.096,0.514 0.165,0.81 0.206,0.888 0.042,0.078 0.146,0.117 0.314,0.117 h 0.844 c 0.322,0 0.484,-0.132 0.484,-0.395 V -3.338 H -0.7 c -0.395,0 -0.592,0.18 -0.592,0.538 v 0.683 c 0,0.274 0.173,0.513 0.52,0.718 C -0.258,-1.089 0,-0.622 0,0"
       style="fill:#000000;fill-opacity:1;fill-rule:nonzero;stroke:none"
       id="path838" /></g><g
     id="g840"
     transform="matrix(0.65092093,0,0,-0.65092093,133.34093,74.417667)"
     clip-path="url(#clipPath5453)"><path
       d="m 0,0 c 0,-0.622 0.228,-1.089 0.683,-1.399 0.31,-0.205 0.465,-0.444 0.465,-0.718 v -0.808 c 0,-0.275 -0.155,-0.413 -0.465,-0.413 h -5.599 c -0.264,0 -0.396,0.126 -0.396,0.377 v 0.844 c 0,0.263 0.156,0.502 0.467,0.718 0.455,0.322 0.682,0.789 0.682,1.399 v 21.246 c 0,0.609 -0.227,1.07 -0.682,1.382 -0.311,0.202 -0.467,0.448 -0.467,0.735 v 0.789 c 0,0.276 0.156,0.413 0.467,0.413 h 5.599 c 0.263,0 0.394,-0.126 0.394,-0.377 v -0.825 c 0,-0.275 -0.155,-0.52 -0.465,-0.735 C 0.228,22.305 0,21.844 0,21.246 Z"
       style="fill:#000000;fill-opacity:1;fill-rule:nonzero;stroke:none"
       id="path842" /></g><g
     id="g844"
     transform="matrix(0.65092093,0,0,-0.65092093,136.03932,76.590306)"
     clip-path="url(#clipPath5447)"><path
       d="m 0,0 h -0.897 c -0.299,0 -0.449,0.161 -0.449,0.484 v 6.765 c 0,0.455 0.161,0.683 0.485,0.683 h 0.771 c 0.203,0 0.338,-0.07 0.403,-0.207 0.066,-0.138 0.16,-0.613 0.279,-1.426 0.49,-3.135 1.609,-4.702 3.355,-4.702 0.909,0 1.624,0.395 2.145,1.184 0.52,0.79 0.78,1.746 0.78,2.871 0,1.16 -0.277,2.238 -0.834,3.231 -0.557,0.992 -1.631,2.332 -3.221,4.019 -1.232,1.291 -2.109,2.293 -2.629,3.005 -0.52,0.712 -0.939,1.517 -1.256,2.414 -0.317,0.897 -0.476,1.884 -0.476,2.96 0,1.987 0.5,3.619 1.499,4.9 0.998,1.279 2.216,1.92 3.651,1.92 0.659,0 1.365,-0.188 2.118,-0.561 0.335,-0.169 0.562,-0.253 0.681,-0.253 0.12,0 0.252,0.049 0.396,0.147 0.143,0.086 0.322,0.128 0.538,0.128 h 0.664 c 0.347,0 0.52,-0.162 0.52,-0.485 v -5.938 c 0,-0.3 -0.131,-0.45 -0.395,-0.45 H 7.303 c -0.215,0 -0.356,0.057 -0.422,0.171 -0.066,0.114 -0.182,0.547 -0.35,1.301 -0.562,2.596 -1.477,3.894 -2.745,3.894 -0.682,0 -1.229,-0.287 -1.641,-0.862 -0.414,-0.574 -0.62,-1.238 -0.62,-1.991 0,-0.874 0.243,-1.767 0.727,-2.682 0.484,-0.916 1.45,-2.116 2.897,-3.599 C 7.004,15.02 8.287,13.348 8.999,11.906 9.71,10.464 10.066,8.9 10.066,7.214 10.066,4.94 9.471,3.093 8.281,1.669 7.091,0.245 5.676,-0.467 4.037,-0.467 3.308,-0.467 2.452,-0.273 1.472,0.112 1.16,0.245 0.938,0.312 0.808,0.312 0.687,0.312 0.532,0.25 0.341,0.128 0.197,0.043 0.083,0 0,0"
       style="fill:#000000;fill-opacity:1;fill-rule:nonzero;stroke:none"
       id="path846" /></g><g
     id="g848"
     transform="matrix(0.65092093,0,0,-0.65092093,144.13385,74.417667)"
     clip-path="url(#clipPath5441)"><path
       d="m 0,0 v 21.246 c 0,0.609 -0.228,1.07 -0.683,1.382 -0.31,0.202 -0.466,0.448 -0.466,0.735 v 0.789 c 0,0.276 0.156,0.413 0.466,0.413 H 5.796 L 7.832,11.484 9.851,24.565 H 16.4 c 0.263,0 0.395,-0.126 0.395,-0.377 v -0.825 c 0,-0.275 -0.155,-0.52 -0.467,-0.735 -0.454,-0.323 -0.682,-0.784 -0.682,-1.382 L 15.646,0 c 0,-0.622 0.234,-1.089 0.701,-1.399 0.299,-0.205 0.448,-0.444 0.448,-0.718 v -0.808 c 0,-0.275 -0.155,-0.413 -0.467,-0.413 h -5.4 c -0.251,0 -0.377,0.126 -0.377,0.377 v 0.844 c 0,0.263 0.148,0.503 0.446,0.718 0.464,0.323 0.696,0.79 0.696,1.4 V 21.757 L 7.823,-3.338 H 6.392 L 2.571,21.757 V 0.001 c 0,-0.622 0.227,-1.089 0.679,-1.4 0.31,-0.204 0.464,-0.443 0.464,-0.718 v -0.808 c 0,-0.275 -0.155,-0.413 -0.467,-0.413 h -4.001 c -0.264,0 -0.395,0.126 -0.395,0.377 v 0.844 c 0,0.263 0.156,0.502 0.466,0.718 C -0.228,-1.077 0,-0.61 0,0"
       style="fill:#000000;fill-opacity:1;fill-rule:nonzero;stroke:none"
       id="path850" /></g><g
     id="g852"
     transform="matrix(0.65092093,0,0,-0.65092093,160.65481,75.56244)"
     clip-path="url(#clipPath5435)"><path
       d="m 0,0 c 0.538,0 1.031,0.347 1.48,1.04 0.449,0.693 0.769,2.594 0.96,5.702 0.192,3.108 0.288,5.959 0.288,8.553 0,2.343 -0.144,4.27 -0.431,5.783 C 2.01,22.59 1.698,23.564 1.363,24 c -0.335,0.437 -0.765,0.655 -1.292,0.655 -0.442,0 -0.84,-0.168 -1.193,-0.502 -0.353,-0.335 -0.628,-0.935 -0.825,-1.802 -0.198,-0.867 -0.371,-2.561 -0.521,-5.083 -0.149,-2.523 -0.223,-5.141 -0.223,-7.854 0,-3.383 0.22,-5.798 0.664,-7.244 C -1.585,0.724 -0.909,0 0,0 m 0.197,-1.937 c -2.5,0 -4.363,1.254 -5.59,3.765 -1.226,2.511 -1.838,5.984 -1.838,10.419 0,4.436 0.619,7.953 1.857,10.553 1.237,2.6 3.035,3.901 5.392,3.901 2.212,0 3.968,-1.199 5.266,-3.596 C 6.582,20.708 7.231,17.16 7.231,12.462 7.231,7.668 6.588,4.069 5.303,1.667 4.016,-0.736 2.314,-1.937 0.197,-1.937"
       style="fill:#000000;fill-opacity:1;fill-rule:nonzero;stroke:none"
       id="path854" /></g><g
     id="g856"
     transform="matrix(0.65092093,0,0,-0.65092093,76.752071,80.5664)"
     clip-path="url(#clipPath5429)"><path
       d="m 0,0 v -11.569 c 1.151,0 1.992,0.131 2.523,0.392 0.531,0.263 0.956,0.787 1.276,1.573 0.319,0.788 0.48,2.006 0.48,3.656 0,1.637 -0.147,2.862 -0.442,3.675 C 3.543,-1.462 3.102,-0.89 2.514,-0.557 1.925,-0.224 1.087,-0.038 0,0 m 0,-13.834 v -10.15 c 0,-0.665 0.243,-1.163 0.729,-1.496 0.333,-0.218 0.499,-0.474 0.499,-0.768 v -0.863 c 0,-0.295 -0.166,-0.442 -0.499,-0.442 h -5.986 c -0.282,0 -0.423,0.135 -0.423,0.404 v 0.901 c 0,0.281 0.166,0.537 0.499,0.768 0.487,0.345 0.73,0.843 0.73,1.496 v 22.717 c 0,0.653 -0.243,1.145 -0.73,1.478 C -5.514,0.429 -5.68,0.69 -5.68,0.998 v 0.844 c 0,0.294 0.166,0.441 0.499,0.441 H 0 c 2.814,0 4.992,-0.732 6.533,-2.197 1.541,-1.465 2.313,-3.412 2.313,-5.842 0,-5.386 -2.95,-8.078 -8.846,-8.078"
       style="fill:#000000;fill-opacity:1;fill-rule:nonzero;stroke:none"
       id="path858" /></g><g
     id="g860"
     transform="matrix(0.65092093,0,0,-0.65092093,86.358241,85.549392)"
     clip-path="url(#clipPath5423)"><path
       d="m 0,0 -2.006,-9.844 h 3.974 z m -1.322,6.162 -0.18,1.304 c -0.06,0.421 -0.09,0.658 -0.09,0.709 0,0.128 0.096,0.236 0.288,0.326 l 3.25,1.515 c 0.052,0.025 0.11,0.038 0.173,0.038 0.18,0 0.295,-0.115 0.347,-0.344 l 5.2,-26.02 c 0.089,-0.473 0.201,-0.812 0.335,-1.016 0.135,-0.205 0.394,-0.422 0.777,-0.653 0.294,-0.179 0.442,-0.383 0.442,-0.614 v -0.844 c 0,-0.307 -0.121,-0.46 -0.365,-0.46 H 2.446 c -0.344,0 -0.517,0.153 -0.517,0.46 v 0.845 c 0,0.294 0.206,0.543 0.617,0.748 0.502,0.269 0.753,0.634 0.753,1.094 0,0.128 -0.013,0.275 -0.039,0.442 L 2.458,-12.3 h -5.014 l -0.802,-3.857 c -0.038,-0.167 -0.058,-0.288 -0.058,-0.364 0,-0.384 0.286,-0.806 0.858,-1.267 0.369,-0.307 0.553,-0.575 0.553,-0.805 v -0.844 c 0,-0.307 -0.185,-0.46 -0.556,-0.46 h -4.01 c -0.449,0 -0.671,0.153 -0.671,0.46 v 0.998 c 0,0.268 0.14,0.486 0.422,0.652 0.524,0.32 0.869,0.863 1.036,1.631 z"
       style="fill:#000000;fill-opacity:1;fill-rule:nonzero;stroke:none"
       id="path862" /></g><g
     id="g864"
     transform="matrix(0.65092093,0,0,-0.65092093,97.039331,80.591195)"
     clip-path="url(#clipPath5417)"><path
       d="m 0,0 v -11.263 c 1.381,0 2.397,0.435 3.05,1.304 0.653,0.87 0.979,2.418 0.979,4.644 0,2.174 -0.33,3.604 -0.988,4.289 C 2.382,-0.343 1.368,0 0,0 m 0,-13.546 v -10.4 c 0,-0.665 0.242,-1.163 0.729,-1.496 0.333,-0.218 0.499,-0.474 0.499,-0.768 v -0.863 c 0,-0.295 -0.166,-0.442 -0.499,-0.442 h -5.987 c -0.281,0 -0.422,0.135 -0.422,0.404 v 0.901 c 0,0.281 0.166,0.537 0.499,0.768 0.486,0.345 0.729,0.843 0.729,1.496 v 22.717 c 0,0.653 -0.243,1.145 -0.729,1.478 -0.333,0.218 -0.499,0.48 -0.499,0.787 V 1.88 c 0,0.294 0.166,0.441 0.499,0.441 h 5.027 c 2.84,0 5.002,-0.639 6.485,-1.919 1.484,-1.279 2.226,-3.127 2.226,-5.545 0,-3.85 -1.785,-6.337 -5.353,-7.463 1.049,-0.512 1.845,-1.09 2.389,-1.737 0.543,-0.645 0.962,-1.595 1.257,-2.849 l 1.4,-6.082 c 0.179,-0.781 0.354,-1.308 0.527,-1.583 0.173,-0.275 0.457,-0.535 0.855,-0.778 0.115,-0.076 0.172,-0.198 0.172,-0.364 v -1.094 c 0,-0.281 -0.14,-0.422 -0.42,-0.422 H 5.559 c -0.371,0 -0.606,0.206 -0.707,0.619 l -2.627,10.548 c -0.282,1.164 -0.592,1.919 -0.931,2.264 -0.339,0.346 -0.771,0.524 -1.294,0.538"
       style="fill:#000000;fill-opacity:1;fill-rule:nonzero;stroke:none"
       id="path866" /></g><g
     id="g868"
     transform="matrix(0.65092093,0,0,-0.65092093,108.88114,85.549392)"
     clip-path="url(#clipPath5411)"><path
       d="m 0,0 -2.007,-9.844 h 3.974 z m -1.323,6.162 -0.18,1.304 c -0.059,0.421 -0.09,0.658 -0.09,0.709 0,0.128 0.096,0.236 0.288,0.326 l 3.251,1.515 c 0.051,0.025 0.109,0.038 0.173,0.038 0.179,0 0.294,-0.115 0.346,-0.344 l 5.2,-26.02 c 0.089,-0.473 0.201,-0.812 0.336,-1.016 0.134,-0.205 0.394,-0.422 0.776,-0.653 0.295,-0.179 0.442,-0.383 0.442,-0.614 v -0.844 c 0,-0.307 -0.121,-0.46 -0.365,-0.46 H 2.446 c -0.345,0 -0.518,0.153 -0.518,0.46 v 0.845 c 0,0.294 0.206,0.543 0.618,0.748 0.501,0.269 0.752,0.634 0.752,1.094 0,0.128 -0.013,0.275 -0.038,0.442 L 2.458,-12.3 h -5.015 l -0.802,-3.857 c -0.038,-0.167 -0.058,-0.288 -0.058,-0.364 0,-0.384 0.286,-0.806 0.858,-1.267 0.37,-0.307 0.553,-0.575 0.553,-0.805 v -0.844 c 0,-0.307 -0.185,-0.46 -0.556,-0.46 h -4.01 c -0.448,0 -0.671,0.153 -0.671,0.46 v 0.998 c 0,0.268 0.14,0.486 0.422,0.652 0.524,0.32 0.869,0.863 1.036,1.631 z"
       style="fill:#000000;fill-opacity:1;fill-rule:nonzero;stroke:none"
       id="path870" /></g><g
     id="g872"
     transform="matrix(0.65092093,0,0,-0.65092093,119.56159,96.178339)"
     clip-path="url(#clipPath5405)"><path
       d="M 0,0 C 0,-0.665 0.242,-1.163 0.729,-1.496 1.062,-1.714 1.228,-1.97 1.228,-2.264 v -0.863 c 0,-0.295 -0.166,-0.441 -0.499,-0.441 h -5.987 c -0.281,0 -0.422,0.134 -0.422,0.403 v 0.901 c 0,0.282 0.166,0.537 0.499,0.768 0.487,0.346 0.73,0.844 0.73,1.496 v 22.718 c 0,0.652 -0.243,1.144 -0.73,1.477 -0.333,0.218 -0.499,0.48 -0.499,0.787 v 0.844 c 0,0.294 0.166,0.442 0.499,0.442 h 5.987 c 0.281,0 0.422,-0.134 0.422,-0.403 V 24.982 C 1.228,24.687 1.062,24.426 0.729,24.195 0.242,23.851 0,23.357 0,22.718 Z"
       style="fill:#000000;fill-opacity:1;fill-rule:nonzero;stroke:none"
       id="path874" /></g><g
     id="g876"
     transform="matrix(0.65092093,0,0,-0.65092093,125.22727,89.296671)"
     clip-path="url(#clipPath5399)"><path
       d="m 0,0 v -11.876 c 1.074,0.038 1.929,0.23 2.562,0.575 0.633,0.346 1.116,0.937 1.449,1.775 0.332,0.838 0.498,1.966 0.498,3.386 0,2.047 -0.348,3.578 -1.045,4.596 C 2.767,-0.527 1.612,-0.013 0,0 M 0,13.335 V 2.207 c 2.725,0 4.087,1.855 4.087,5.564 0,1.381 -0.186,2.517 -0.557,3.406 -0.371,0.888 -0.824,1.47 -1.361,1.746 C 1.631,13.197 0.908,13.335 0,13.335 M 3.243,1.113 c 3.875,-1.228 5.814,-3.684 5.814,-7.368 0,-1.599 -0.38,-3.025 -1.141,-4.278 -0.76,-1.254 -1.83,-2.168 -3.209,-2.744 -1.38,-0.576 -2.76,-0.864 -4.14,-0.864 h -5.882 c -0.23,0 -0.345,0.122 -0.345,0.365 v 0.94 c 0,0.269 0.164,0.524 0.491,0.768 0.491,0.345 0.737,0.843 0.737,1.496 v 22.718 c 0,0.677 -0.246,1.176 -0.737,1.497 -0.327,0.204 -0.491,0.46 -0.491,0.767 v 0.883 c 0,0.269 0.159,0.402 0.479,0.402 h 6.113 c 2.273,0 4.103,-0.674 5.489,-2.024 C 7.807,12.321 8.5,10.579 8.5,8.442 8.5,6.933 8.106,5.517 7.32,4.192 6.533,2.869 5.174,1.843 3.243,1.113"
       style="fill:#000000;fill-opacity:1;fill-rule:nonzero;stroke:none"
       id="path878" /></g><g
     id="g880"
     transform="matrix(0.65092093,0,0,-0.65092093,136.68257,85.549392)"
     clip-path="url(#clipPath5393)"><path
       d="m 0,0 -2.007,-9.844 h 3.974 z m -1.323,6.162 -0.18,1.304 c -0.059,0.421 -0.09,0.658 -0.09,0.709 0,0.128 0.096,0.236 0.288,0.326 l 3.251,1.515 c 0.051,0.025 0.109,0.038 0.173,0.038 0.179,0 0.294,-0.115 0.346,-0.344 l 5.2,-26.02 c 0.089,-0.473 0.201,-0.812 0.336,-1.016 0.134,-0.205 0.394,-0.422 0.776,-0.653 0.295,-0.179 0.442,-0.383 0.442,-0.614 v -0.844 c 0,-0.307 -0.121,-0.46 -0.365,-0.46 H 2.446 c -0.345,0 -0.518,0.153 -0.518,0.46 v 0.845 c 0,0.294 0.206,0.543 0.618,0.748 0.501,0.269 0.752,0.634 0.752,1.094 0,0.128 -0.013,0.275 -0.038,0.442 L 2.458,-12.3 h -5.015 l -0.802,-3.857 c -0.038,-0.167 -0.058,-0.288 -0.058,-0.364 0,-0.384 0.286,-0.806 0.859,-1.267 0.369,-0.307 0.552,-0.575 0.552,-0.805 v -0.844 c 0,-0.307 -0.185,-0.46 -0.556,-0.46 h -4.01 c -0.448,0 -0.671,0.153 -0.671,0.46 v 0.998 c 0,0.268 0.14,0.486 0.422,0.652 0.524,0.32 0.869,0.863 1.036,1.631 z"
       style="fill:#000000;fill-opacity:1;fill-rule:nonzero;stroke:none"
       id="path882" /></g><g
     id="g884"
     transform="matrix(0.65092093,0,0,-0.65092093,151.04735,89.593495)"
     clip-path="url(#clipPath5387)"><path
       d="m 0,0 v 12.595 c 0,0.653 -0.244,1.146 -0.729,1.479 -0.333,0.219 -0.5,0.482 -0.5,0.789 v 0.846 c 0,0.295 0.167,0.442 0.5,0.442 h 4.335 c 0.282,0 0.423,-0.133 0.423,-0.402 V 14.866 C 4.029,14.571 3.868,14.31 3.549,14.079 3.05,13.734 2.801,13.241 2.801,12.602 v -25.807 c 0,-0.409 -0.186,-0.614 -0.558,-0.614 H 1.397 c -0.384,0 -0.654,0.205 -0.807,0.614 L -7.368,7.709 v -17.825 c 0,-0.665 0.245,-1.163 0.736,-1.496 0.328,-0.218 0.491,-0.474 0.491,-0.768 v -0.863 c 0,-0.295 -0.165,-0.442 -0.495,-0.442 h -4.285 c -0.279,0 -0.419,0.135 -0.419,0.404 v 0.901 c 0,0.281 0.166,0.537 0.499,0.768 0.486,0.345 0.729,0.843 0.729,1.496 v 22.718 c 0,0.652 -0.243,1.144 -0.729,1.477 -0.333,0.218 -0.499,0.48 -0.499,0.787 v 0.844 c 0,0.294 0.165,0.441 0.497,0.441 h 4.053 c 0.293,0 0.49,-0.035 0.593,-0.105 0.101,-0.071 0.203,-0.24 0.305,-0.51 z"
       style="fill:#000000;fill-opacity:1;fill-rule:nonzero;stroke:none"
       id="path886" /></g><g
     id="g888"
     transform="matrix(0.65092093,0,0,-0.65092093,160.22253,97.402013)"
     clip-path="url(#clipPath5381)"><path
       d="m 0,0 c 0.576,0 1.104,0.37 1.583,1.112 0.48,0.742 0.821,2.774 1.026,6.097 0.205,3.323 0.308,6.372 0.308,9.145 0,2.505 -0.154,4.567 -0.461,6.184 -0.308,1.616 -0.64,2.658 -0.998,3.125 -0.358,0.466 -0.818,0.7 -1.381,0.7 -0.473,0 -0.899,-0.178 -1.276,-0.537 -0.378,-0.358 -0.672,-1 -0.883,-1.927 -0.211,-0.926 -0.397,-2.738 -0.556,-5.435 -0.16,-2.697 -0.24,-5.496 -0.24,-8.398 0,-3.618 0.236,-6.2 0.71,-7.746 C -1.695,0.773 -0.972,0 0,0 m 0.211,-2.072 c -2.674,0 -4.666,1.342 -5.977,4.026 -1.311,2.685 -1.966,6.399 -1.966,11.141 0,4.743 0.662,8.505 1.986,11.285 1.323,2.78 3.245,4.171 5.766,4.171 2.366,0 4.243,-1.282 5.63,-3.845 C 7.038,22.143 7.732,18.35 7.732,13.325 7.732,8.199 7.045,4.352 5.67,1.782 4.295,-0.787 2.475,-2.072 0.211,-2.072"
       style="fill:#000000;fill-opacity:1;fill-rule:nonzero;stroke:none"
       id="path890" /></g></g></svg>
